<?xml version="1.0" encoding="UTF-8" standalone="no"?>
<svg
   xmlns:dc="http://purl.org/dc/elements/1.1/"
   xmlns:cc="http://creativecommons.org/ns#"
   xmlns:rdf="http://www.w3.org/1999/02/22-rdf-syntax-ns#"
   xmlns:svg="http://www.w3.org/2000/svg"
   xmlns="http://www.w3.org/2000/svg"
   xmlns:sodipodi="http://sodipodi.sourceforge.net/DTD/sodipodi-0.dtd"
   xmlns:inkscape="http://www.inkscape.org/namespaces/inkscape"
   width="99.374992mm"
   height="73.435806mm"
   viewBox="0 0 99.374993 73.435809"
   version="1.1"
   id="svg8"
   inkscape:version="1.0 (4035a4fb49, 2020-05-01)"
   sodipodi:docname="example-1-3.svg">
  <defs
     id="defs2" />
  <sodipodi:namedview
     id="base"
     pagecolor="#ffffff"
     bordercolor="#666666"
     borderopacity="1.0"
     inkscape:pageopacity="0.0"
     inkscape:pageshadow="2"
     inkscape:zoom="2"
     inkscape:cx="228.89264"
     inkscape:cy="102.98049"
     inkscape:document-units="mm"
     inkscape:current-layer="layer1"
     inkscape:document-rotation="0"
     showgrid="true"
     inkscape:snap-grids="true"
     inkscape:window-width="1920"
     inkscape:window-height="1017"
     inkscape:window-x="-8"
     inkscape:window-y="-8"
     inkscape:window-maximized="1"
     fit-margin-top="10"
     fit-margin-left="10"
     fit-margin-right="10"
     fit-margin-bottom="10">
    <inkscape:grid
       type="xygrid"
       id="grid12"
       spacingx="2.6458333"
       spacingy="2.6458333"
       originx="-42.91667"
       originy="-29.391694" />
  </sodipodi:namedview>
  <metadata
     id="metadata5">
    <rdf:RDF>
      <cc:Work
         rdf:about="">
        <dc:format>image/svg+xml</dc:format>
        <dc:type
           rdf:resource="http://purl.org/dc/dcmitype/StillImage" />
        <dc:title />
      </cc:Work>
    </rdf:RDF>
  </metadata>
  <g
     inkscape:label="Layer 1"
     inkscape:groupmode="layer"
     id="layer1"
     transform="translate(-42.916667,-29.391686)">
    <path
       id="path851"
       d="M 92.604163,92.604165 66.145833,66.145832 119.0625,39.687499 Z"
       style="fill:none;stroke:#000000;stroke-width:0.264583px;stroke-linecap:butt;stroke-linejoin:miter;stroke-opacity:1" />
    <path
       id="path853"
       d="M 105.83337,79.374998 92.604172,66.145832 119.06258,52.916665 Z"
       style="fill:none;stroke:#000000;stroke-width:0.264583px;stroke-linecap:butt;stroke-linejoin:miter;stroke-opacity:1" />
    <path
       style="fill:none;stroke:#000000;stroke-width:0.264583px;stroke-linecap:butt;stroke-linejoin:miter;stroke-opacity:1"
       d="M 92.604162,92.604157 105.83333,66.145824"
       id="path2895" />
    <ellipse
       ry="1.0383401"
       rx="1.014954"
       style="fill:#000000;fill-opacity:1;stroke:#000000;stroke-width:0.620797;stroke-miterlimit:4;stroke-dasharray:none"
       id="path893-8-2"
       cx="101.45009"
       cy="74.826759" />
    <ellipse
       cy="79.324677"
       cx="105.74957"
       id="path893-8-2-9"
       style="fill:#000000;fill-opacity:1;stroke:#000000;stroke-width:0.620797;stroke-miterlimit:4;stroke-dasharray:none"
       rx="1.014954"
       ry="1.0383401" />
    <ellipse
       cy="92.40152"
       cx="92.509041"
       id="path893-8"
       style="fill:#000000;fill-opacity:1;stroke:#000000;stroke-width:0.620797;stroke-miterlimit:4;stroke-dasharray:none"
       rx="1.014954"
       ry="1.0383401" />
    <path
       id="path855"
       d="M 52.893282,74.776194 H 132.26827"
       style="fill:#ff0000;stroke:#000000;stroke-width:0.264583px;stroke-linecap:butt;stroke-linejoin:miter;stroke-opacity:1" />
    <path
       transform="matrix(0.26458333,0,0,0.26458333,42.916667,29.391686)"
       id="path4936"
       d="m 153.36106,203.1989 -30.71537,-30.71841 h 46.63585 46.63585 l 0.43554,1.14555 c 0.23955,0.63005 0.78656,1.43687 1.21559,1.79293 0.6878,0.57082 -0.9102,4.0285 -13.51195,29.23656 l -14.292,28.58917 -1.88058,-0.17934 c -1.03431,-0.0986 -2.31414,0.0527 -2.84407,0.3363 -0.84724,0.45344 -4.66949,-3.19071 -31.67886,-30.20276 z"
       style="fill:#ff0000;stroke-width:1.51181" />
    <path
       transform="matrix(0.26458333,0,0,0.26458333,42.916667,29.391686)"
       id="path4938"
       d="m 229.73902,179.58721 c -4.23597,-4.2652 -4.38045,-4.4849 -3.79475,-5.77037 l 0.60889,-1.33635 h 9.16974 c 5.04336,0 9.16974,0.1098 9.16974,0.24399 0,0.13419 -1.1763,2.60919 -2.61399,5.5 -2.57628,5.18019 -2.63939,5.25611 -4.375,5.26284 -0.96856,0.004 -2.21101,0.12542 -2.76101,0.27036 -0.76289,0.20106 -2.04414,-0.7878 -5.40362,-4.17047 z"
       style="fill:#0000ff;stroke-width:1.51181" />
  </g>
</svg>
