<?xml version="1.0" encoding="UTF-8" standalone="no"?>
<svg
   xmlns:dc="http://purl.org/dc/elements/1.1/"
   xmlns:cc="http://creativecommons.org/ns#"
   xmlns:rdf="http://www.w3.org/1999/02/22-rdf-syntax-ns#"
   xmlns:svg="http://www.w3.org/2000/svg"
   xmlns="http://www.w3.org/2000/svg"
   xmlns:sodipodi="http://sodipodi.sourceforge.net/DTD/sodipodi-0.dtd"
   xmlns:inkscape="http://www.inkscape.org/namespaces/inkscape"
   width="99.374992mm"
   height="73.435806mm"
   viewBox="0 0 99.374993 73.435809"
   version="1.1"
   id="svg8"
   inkscape:version="1.0 (4035a4fb49, 2020-05-01)"
   sodipodi:docname="example-2-4.svg">
  <defs
     id="defs2" />
  <sodipodi:namedview
     id="base"
     pagecolor="#ffffff"
     bordercolor="#666666"
     borderopacity="1.0"
     inkscape:pageopacity="0.0"
     inkscape:pageshadow="2"
     inkscape:zoom="4"
     inkscape:cx="219.61634"
     inkscape:cy="144.35189"
     inkscape:document-units="mm"
     inkscape:current-layer="layer1"
     inkscape:document-rotation="0"
     showgrid="true"
     inkscape:snap-grids="true"
     inkscape:window-width="1920"
     inkscape:window-height="1017"
     inkscape:window-x="-8"
     inkscape:window-y="-8"
     inkscape:window-maximized="1"
     fit-margin-top="10"
     fit-margin-left="10"
     fit-margin-right="10"
     fit-margin-bottom="10">
    <inkscape:grid
       type="xygrid"
       id="grid12"
       spacingx="2.6458333"
       spacingy="2.6458333"
       originx="-42.91667"
       originy="-29.391694" />
  </sodipodi:namedview>
  <metadata
     id="metadata5">
    <rdf:RDF>
      <cc:Work
         rdf:about="">
        <dc:format>image/svg+xml</dc:format>
        <dc:type
           rdf:resource="http://purl.org/dc/dcmitype/StillImage" />
        <dc:title></dc:title>
      </cc:Work>
    </rdf:RDF>
  </metadata>
  <g
     inkscape:label="Layer 1"
     inkscape:groupmode="layer"
     id="layer1"
     transform="translate(-42.916667,-29.391686)">
    <path
       id="path851"
       d="M 92.604163,92.604165 66.145833,66.145832 119.0625,39.687499 Z"
       style="fill:none;stroke:#000000;stroke-width:0.264583px;stroke-linecap:butt;stroke-linejoin:miter;stroke-opacity:1" />
    <path
       id="path853"
       d="M 92.604162,79.374998 79.374997,66.145832 105.83333,52.916665 Z"
       style="fill:none;stroke:#000000;stroke-width:0.264583px;stroke-linecap:butt;stroke-linejoin:miter;stroke-opacity:1" />
    <path
       style="fill:none;stroke:#000000;stroke-width:0.264583px;stroke-linecap:butt;stroke-linejoin:miter;stroke-opacity:1"
       d="M 92.604162,92.604157 105.83333,66.145824"
       id="path2895" />
    <path
       id="path855"
       d="M 52.916676,52.916658 H 132.29166"
       style="fill:#ff0000;stroke:#000000;stroke-width:0.264583px;stroke-linecap:butt;stroke-linejoin:miter;stroke-opacity:1" />
    <path
       style="fill:#ff0000;stroke:#000000;stroke-width:0.264583px;stroke-linecap:butt;stroke-linejoin:miter;stroke-opacity:1"
       d="M 92.604162,92.604157 V 79.374991"
       id="path2608" />
    <ellipse
       cy="92.59996"
       cx="92.575172"
       id="path893-8"
       style="fill:#000000;fill-opacity:1;stroke:#000000;stroke-width:0.620797;stroke-miterlimit:4;stroke-dasharray:none"
       rx="1.014954"
       ry="1.0383401" />
    <ellipse
       cy="79.324669"
       cx="92.718849"
       id="path893-8-2-9"
       style="fill:#000000;fill-opacity:1;stroke:#000000;stroke-width:0.620797;stroke-miterlimit:4;stroke-dasharray:none"
       rx="1.014954"
       ry="1.0383401" />
    <ellipse
       ry="1.0383401"
       rx="1.014954"
       style="fill:#000000;fill-opacity:1;stroke:#000000;stroke-width:0.620797;stroke-miterlimit:4;stroke-dasharray:none"
       id="path893-8-2-9-2"
       cx="66.194366"
       cy="66.360085" />
    <ellipse
       ry="1.0383401"
       rx="1.014954"
       style="fill:#000000;fill-opacity:1;stroke:#000000;stroke-width:0.620797;stroke-miterlimit:4;stroke-dasharray:none"
       id="path893-8-2-9-6"
       cx="79.291245"
       cy="66.227798" />
    <ellipse
       cy="53.064777"
       cx="105.74958"
       id="path893-8-2-9-6-8"
       style="fill:#000000;fill-opacity:1;stroke:#000000;stroke-width:0.620797;stroke-miterlimit:4;stroke-dasharray:none"
       rx="1.014954"
       ry="1.0383401" />
    <path
       transform="matrix(0.26458333,0,0,0.26458333,42.916667,29.391686)"
       id="path858"
       d="m 138.41949,188.53164 -46.071843,-46.07395 0.413059,-0.98859 c 0.39531,-0.94611 0.394747,-2.86381 -0.0011,-3.86721 -0.114626,-0.29053 10.580314,-5.73885 47.479584,-24.1875 l 47.62754,-23.8125 h 22.24982 22.24983 v 0.624863 c 0,0.580849 -3.18952,2.219642 -45.28198,23.266127 l -45.28199,22.64127 -0.65551,-0.61259 c -2.18523,-2.04213 -5.74416,-1.8956 -7.60259,0.31302 -2.03957,2.42389 -1.31443,6.37858 1.45747,7.94857 1.41924,0.80386 3.63518,0.78327 4.9896,-0.0464 l 1,-0.61253 21.41024,21.39852 21.41025,21.39851 -0.37386,0.89476 c -0.96993,2.32139 0.17013,5.30436 2.49795,6.53584 l 1.18141,0.625 -0.063,19.83576 -0.063,19.83576 -0.875,0.31797 c -0.48125,0.17489 -1.04375,0.39026 -1.25,0.47859 -0.26608,0.11397 -13.75647,-13.22146 -46.44685,-45.91333 z"
       style="fill:#ff0000;stroke-width:0.755906" />
    <path
       transform="matrix(0.26458333,0,0,0.26458333,42.916667,29.391686)"
       id="path868"
       d="m 188.92884,233.90241 -0.5625,-0.0853 V 213.8345 193.85189 h 0.70105 c 1.2392,0 2.99995,-1.34537 3.68418,-2.81503 1.01767,-2.18585 0.71945,-4.27827 -0.84399,-5.92179 l -0.93384,-0.98167 22.3824,-44.76575 22.3824,-44.76576 h 1.63995 c 2.23087,0 3.74043,-0.919185 4.62308,-2.815032 0.33544,-0.720482 0.61099,-1.506843 0.61233,-1.747468 0.002,-0.408948 0.62242,-0.4375 9.50244,-0.4375 5.225,0 9.49377,0.08438 9.48615,0.1875 -0.008,0.103125 -16.23574,32.58993 -36.0625,72.1929 -33.10154,66.1187 -36.09464,71.99843 -36.61115,71.92012 z"
       style="fill:#0000ff;stroke-width:0.755906" />
    <path
       transform="matrix(0.26458333,0,0,0.26458333,42.916667,29.391686)"
       id="path870"
       d="m 163.26235,163.3729 -21.41453,-21.41562 0.41297,-0.98838 c 0.28918,-0.69211 0.37205,-1.3849 0.27645,-2.31116 l -0.13652,-1.32277 45.25787,-22.6292 45.25787,-22.629212 0.8196,0.948149 0.81961,0.948148 -22.40684,44.814515 -22.40684,44.81452 -1.50033,0.003 c -1.11476,0.002 -1.76559,0.15471 -2.53255,0.59331 l -1.03223,0.5903 -21.41453,-21.41562 z"
       style="fill:#00ff00;stroke-width:0.755906" />
  </g>
</svg>
