<?xml version="1.0" encoding="UTF-8" standalone="no"?>
<svg
   xmlns:dc="http://purl.org/dc/elements/1.1/"
   xmlns:cc="http://creativecommons.org/ns#"
   xmlns:rdf="http://www.w3.org/1999/02/22-rdf-syntax-ns#"
   xmlns:svg="http://www.w3.org/2000/svg"
   xmlns="http://www.w3.org/2000/svg"
   xmlns:sodipodi="http://sodipodi.sourceforge.net/DTD/sodipodi-0.dtd"
   xmlns:inkscape="http://www.inkscape.org/namespaces/inkscape"
   width="99.374992mm"
   height="73.435806mm"
   viewBox="0 0 99.374993 73.435809"
   version="1.1"
   id="svg8"
   inkscape:version="1.0 (4035a4fb49, 2020-05-01)"
   sodipodi:docname="example-1-4.svg">
  <defs
     id="defs2" />
  <sodipodi:namedview
     id="base"
     pagecolor="#ffffff"
     bordercolor="#666666"
     borderopacity="1.0"
     inkscape:pageopacity="0.0"
     inkscape:pageshadow="2"
     inkscape:zoom="2.8284271"
     inkscape:cx="205.76557"
     inkscape:cy="159.25432"
     inkscape:document-units="mm"
     inkscape:current-layer="layer1"
     inkscape:document-rotation="0"
     showgrid="true"
     inkscape:snap-grids="true"
     inkscape:window-width="1920"
     inkscape:window-height="1017"
     inkscape:window-x="-8"
     inkscape:window-y="-8"
     inkscape:window-maximized="1"
     fit-margin-top="10"
     fit-margin-left="10"
     fit-margin-right="10"
     fit-margin-bottom="10">
    <inkscape:grid
       type="xygrid"
       id="grid12"
       spacingx="2.6458333"
       spacingy="2.6458333"
       originx="-42.91667"
       originy="-29.391694" />
  </sodipodi:namedview>
  <metadata
     id="metadata5">
    <rdf:RDF>
      <cc:Work
         rdf:about="">
        <dc:format>image/svg+xml</dc:format>
        <dc:type
           rdf:resource="http://purl.org/dc/dcmitype/StillImage" />
        <dc:title />
      </cc:Work>
    </rdf:RDF>
  </metadata>
  <g
     inkscape:label="Layer 1"
     inkscape:groupmode="layer"
     id="layer1"
     transform="translate(-42.916667,-29.391686)">
    <path
       id="path851"
       d="M 92.604163,92.604165 66.145833,66.145832 119.0625,39.687499 Z"
       style="fill:none;stroke:#000000;stroke-width:0.264583px;stroke-linecap:butt;stroke-linejoin:miter;stroke-opacity:1" />
    <path
       id="path853"
       d="M 105.83337,79.374998 92.604172,66.145832 119.06258,52.916665 Z"
       style="fill:none;stroke:#000000;stroke-width:0.264583px;stroke-linecap:butt;stroke-linejoin:miter;stroke-opacity:1" />
    <path
       style="fill:none;stroke:#000000;stroke-width:0.264583px;stroke-linecap:butt;stroke-linejoin:miter;stroke-opacity:1"
       d="M 92.604162,92.604157 105.83333,66.145824"
       id="path2895" />
    <ellipse
       ry="1.0383401"
       rx="1.014954"
       style="fill:#000000;fill-opacity:1;stroke:#000000;stroke-width:0.620797;stroke-miterlimit:4;stroke-dasharray:none"
       id="path893-8-2"
       cx="101.45009"
       cy="74.826759" />
    <ellipse
       cy="79.324677"
       cx="105.74957"
       id="path893-8-2-9"
       style="fill:#000000;fill-opacity:1;stroke:#000000;stroke-width:0.620797;stroke-miterlimit:4;stroke-dasharray:none"
       rx="1.014954"
       ry="1.0383401" />
    <ellipse
       cy="92.40152"
       cx="92.509041"
       id="path893-8"
       style="fill:#000000;fill-opacity:1;stroke:#000000;stroke-width:0.620797;stroke-miterlimit:4;stroke-dasharray:none"
       rx="1.014954"
       ry="1.0383401" />
    <path
       id="path855"
       d="M 52.916674,66.145825 H 132.29166"
       style="fill:#ff0000;stroke:#000000;stroke-width:0.264583px;stroke-linecap:butt;stroke-linejoin:miter;stroke-opacity:1" />
    <ellipse
       ry="1.0383401"
       rx="1.014954"
       style="fill:#000000;fill-opacity:1;stroke:#000000;stroke-width:0.620797;stroke-miterlimit:4;stroke-dasharray:none"
       id="path893-8-9"
       cx="66.182999"
       cy="66.141624" />
    <ellipse
       ry="1.0383401"
       rx="1.014954"
       style="fill:#000000;fill-opacity:1;stroke:#000000;stroke-width:0.620797;stroke-miterlimit:4;stroke-dasharray:none"
       id="path893-8-4"
       cx="92.839775"
       cy="66.207771" />
    <path
       transform="matrix(0.26458333,0,0,0.26458333,42.916667,29.391686)"
       id="path5561"
       d="m 137.93263,188.10239 c -43.212531,-43.22836 -45.94764,-46.0367 -45.464577,-46.6817 0.282691,-0.37746 0.513984,-0.97409 0.513984,-1.32583 0,-0.61367 1.827643,-0.63953 45.198873,-0.63953 h 45.19887 l 0.4159,1.38816 c 0.86033,2.87151 4.20213,4.31398 7.12065,3.07357 0.37235,-0.15826 4.29418,3.54073 13.16536,12.41729 l 12.63504,12.64269 -0.39598,1.28544 c -0.52246,1.69601 -0.13849,3.56113 1.01544,4.9325 l 0.93588,1.11223 -14.27733,28.56163 c -13.91246,27.83169 -14.29874,28.55348 -15.1151,28.24311 -1.2613,-0.47955 -2.27376,-0.38798 -3.68922,0.33367 l -1.27923,0.65218 z"
       style="fill:#ff0000;stroke-width:1.06901" />
    <path
       transform="matrix(0.26458333,0,0,0.26458333,42.916667,29.391686)"
       id="path5563"
       d="m 205.1095,155.23951 -12.49637,-12.50009 0.56581,-1.09416 c 0.3112,-0.60178 0.56581,-1.3407 0.56581,-1.64204 0,-0.48878 2.30772,-0.54789 21.38998,-0.54789 11.76449,0 21.38999,0.0804 21.38999,0.17859 0,0.0982 -3.01416,6.20528 -6.69814,13.57124 l -6.69814,13.39266 -1.74707,-0.0264 c -1.08361,-0.0163 -2.09323,0.20045 -2.65859,0.57089 -0.50133,0.32849 -0.95773,0.59725 -1.01421,0.59725 -0.0565,0 -5.72606,-5.62504 -12.59907,-12.50009 z"
       style="fill:#00ff00;stroke-width:1.06901" />
    <path
       transform="matrix(0.26458333,0,0,0.26458333,42.916667,29.391686)"
       id="path5565"
       d="m 229.70325,179.8334 -4.52164,-4.53169 0.54285,-1.04102 c 0.86507,-1.65893 0.70255,-4.07218 -0.38186,-5.67015 l -0.92906,-1.36905 6.93888,-13.88308 6.93889,-13.88308 h 11.66785 c 6.41731,0 11.66785,0.0792 11.66785,0.17603 0,0.0968 -4.95976,10.09706 -11.02168,22.22276 l -11.02167,22.04672 -1.08753,-0.23688 c -1.02473,-0.2232 -2.544,-0.0297 -3.74005,0.47638 -0.36596,0.15484 -1.93776,-1.18493 -5.05283,-4.30694 z"
       style="fill:#0000ff;stroke-width:1.06901" />
  </g>
</svg>
