<?xml version="1.0" encoding="UTF-8" standalone="no"?>
<svg
   xmlns:dc="http://purl.org/dc/elements/1.1/"
   xmlns:cc="http://creativecommons.org/ns#"
   xmlns:rdf="http://www.w3.org/1999/02/22-rdf-syntax-ns#"
   xmlns:svg="http://www.w3.org/2000/svg"
   xmlns="http://www.w3.org/2000/svg"
   xmlns:sodipodi="http://sodipodi.sourceforge.net/DTD/sodipodi-0.dtd"
   xmlns:inkscape="http://www.inkscape.org/namespaces/inkscape"
   sodipodi:docname="intersections-6.svg"
   inkscape:version="1.0 (4035a4fb49, 2020-05-01)"
   id="svg48"
   version="1.1"
   viewBox="0 0 126.2355 55.097796"
   height="55.097797mm"
   width="126.23548mm">
  <defs
     id="defs42">
    <inkscape:perspective
       id="perspective991"
       inkscape:persp3d-origin="60.854173 : 30.103436 : 1"
       inkscape:vp_z="121.70835 : 36.352026 : 1"
       inkscape:vp_y="0 : 1000 : 0"
       inkscape:vp_x="0 : 36.352026 : 1"
       sodipodi:type="inkscape:persp3d" />
    <rect
       id="rect1262"
       height="29.104166"
       width="55.5625"
       y="31.75"
       x="5.2916665" />
    <marker
       inkscape:stockid="Arrow1Lend"
       orient="auto"
       refY="0"
       refX="0"
       id="marker1217"
       style="overflow:visible"
       inkscape:isstock="true">
      <path
         id="path1215"
         d="M 0,0 5,-5 -12.5,0 5,5 Z"
         style="fill:#000000;fill-opacity:1;fill-rule:evenodd;stroke:#000000;stroke-width:1pt;stroke-opacity:1"
         transform="matrix(-0.8,0,0,-0.8,-10,0)" />
    </marker>
    <rect
       x="5.2916665"
       y="31.75"
       width="55.5625"
       height="29.104166"
       id="rect1262-3" />
    <rect
       x="5.2916665"
       y="31.75"
       width="55.5625"
       height="29.104166"
       id="rect1275" />
    <rect
       x="5.2916665"
       y="31.75"
       width="55.5625"
       height="29.104166"
       id="rect1262-6" />
    <rect
       x="5.2916665"
       y="31.75"
       width="55.5625"
       height="29.104166"
       id="rect1304" />
    <rect
       id="rect1262-3-2"
       height="29.104166"
       width="55.5625"
       y="31.75"
       x="5.2916665" />
    <rect
       id="rect1333"
       height="29.104166"
       width="55.5625"
       y="31.75"
       x="5.2916665" />
    <rect
       x="5.2916665"
       y="31.75"
       width="55.5625"
       height="29.104166"
       id="rect1262-1" />
    <rect
       x="5.2916665"
       y="31.75"
       width="55.5625"
       height="29.104166"
       id="rect921" />
    <rect
       id="rect1262-3-7"
       height="29.104166"
       width="55.5625"
       y="31.75"
       x="5.2916665" />
    <rect
       id="rect951"
       height="29.104166"
       width="55.5625"
       y="31.75"
       x="5.2916665" />
    <rect
       x="5.2916665"
       y="31.75"
       width="55.5625"
       height="29.104166"
       id="rect1262-0" />
    <rect
       x="5.2916665"
       y="31.75"
       width="55.5625"
       height="29.104166"
       id="rect152" />
    <rect
       x="5.2916665"
       y="31.75"
       width="55.5625"
       height="29.104166"
       id="rect1262-34" />
    <rect
       x="5.2916665"
       y="31.75"
       width="55.5625"
       height="29.104166"
       id="rect152-8" />
    <rect
       x="5.2916665"
       y="31.75"
       width="55.5625"
       height="29.104166"
       id="rect1262-8" />
    <rect
       x="5.2916665"
       y="31.75"
       width="55.5625"
       height="29.104166"
       id="rect152-7" />
    <rect
       id="rect1262-3-6"
       height="29.104166"
       width="55.5625"
       y="31.75"
       x="5.2916665" />
    <rect
       id="rect214"
       height="29.104166"
       width="55.5625"
       y="31.75"
       x="5.2916665" />
    <rect
       id="rect1262-3-28"
       height="29.104166"
       width="55.5625"
       y="31.75"
       x="5.2916665" />
    <rect
       id="rect214-3"
       height="29.104166"
       width="55.5625"
       y="31.75"
       x="5.2916665" />
    <rect
       id="rect1262-3-8"
       height="29.104166"
       width="55.5625"
       y="31.75"
       x="5.2916665" />
    <rect
       id="rect214-4"
       height="29.104166"
       width="55.5625"
       y="31.75"
       x="5.2916665" />
    <rect
       id="rect1262-3-5"
       height="29.104166"
       width="55.5625"
       y="31.75"
       x="5.2916665" />
    <rect
       id="rect69"
       height="29.104166"
       width="55.5625"
       y="31.75"
       x="5.2916665" />
    <rect
       x="5.2916665"
       y="31.75"
       width="55.5625"
       height="29.104166"
       id="rect1262-3-5-8" />
    <rect
       x="5.2916665"
       y="31.75"
       width="55.5625"
       height="29.104166"
       id="rect1163" />
    <rect
       x="5.2916665"
       y="31.75"
       width="55.5625"
       height="29.104166"
       id="rect1262-3-5-5" />
    <rect
       x="5.2916665"
       y="31.75"
       width="55.5625"
       height="29.104166"
       id="rect1163-2" />
    <rect
       id="rect1262-3-5-5-1"
       height="29.104166"
       width="55.5625"
       y="31.75"
       x="5.2916665" />
    <rect
       id="rect1208"
       height="29.104166"
       width="55.5625"
       y="31.75"
       x="5.2916665" />
    <rect
       x="5.2916665"
       y="31.75"
       width="55.5625"
       height="29.104166"
       id="rect1262-3-5-5-1-0" />
    <rect
       x="5.2916665"
       y="31.75"
       width="55.5625"
       height="29.104166"
       id="rect1238" />
    <rect
       x="5.2916665"
       y="31.75"
       width="55.5625"
       height="29.104166"
       id="rect1262-3-74" />
    <rect
       x="5.2916665"
       y="31.75"
       width="55.5625"
       height="29.104166"
       id="rect898" />
  </defs>
  <sodipodi:namedview
     inkscape:window-maximized="1"
     inkscape:window-y="-8"
     inkscape:window-x="-8"
     inkscape:window-height="1017"
     inkscape:window-width="1920"
     fit-margin-bottom="0"
     fit-margin-right="0"
     fit-margin-left="0"
     fit-margin-top="0"
     showgrid="true"
     inkscape:document-rotation="0"
     inkscape:current-layer="layer1"
     inkscape:document-units="mm"
     inkscape:cy="43.518877"
     inkscape:cx="144.26695"
     inkscape:zoom="22.4"
     inkscape:pageshadow="2"
     inkscape:pageopacity="0.0"
     borderopacity="1.0"
     bordercolor="#666666"
     pagecolor="#ffffff"
     id="base">
    <inkscape:grid
       originy="-51.872734"
       originx="-79.37502"
       spacingy="2.6458333"
       spacingx="2.6458333"
       id="grid82"
       type="xygrid" />
  </sodipodi:namedview>
  <metadata
     id="metadata45">
    <rdf:RDF>
      <cc:Work
         rdf:about="">
        <dc:format>image/svg+xml</dc:format>
        <dc:type
           rdf:resource="http://purl.org/dc/dcmitype/StillImage" />
        <dc:title />
      </cc:Work>
    </rdf:RDF>
  </metadata>
  <g
     transform="translate(-79.374999,-51.872733)"
     id="layer1"
     inkscape:groupmode="layer"
     inkscape:label="Layer 1">
    <path
       style="fill:none;stroke:#000000;stroke-width:0.261627px;stroke-linecap:butt;stroke-linejoin:miter;stroke-opacity:1"
       d="M 79.374999,92.604164 H 195.79166"
       id="path901" />
    <path
       style="fill:none;stroke:#000000;stroke-width:0.262;stroke-linecap:butt;stroke-linejoin:miter;stroke-opacity:1;stroke-miterlimit:4;stroke-dasharray:0.786,0.262;stroke-dashoffset:0"
       d="M 79.374999,66.145832 H 195.79166"
       id="path903" />
    <path
       style="fill:none;stroke:#0000ff;stroke-width:0.774;stroke-linecap:butt;stroke-linejoin:miter;stroke-miterlimit:4;stroke-dasharray:none;stroke-opacity:1"
       d="M 92.604165,92.604164 113.77083,66.145831"
       id="path1005" />
    <path
       style="fill:none;stroke:#0000ff;stroke-width:0.774;stroke-linecap:butt;stroke-linejoin:miter;stroke-miterlimit:4;stroke-dasharray:none;stroke-opacity:1"
       d="M 119.0625,92.604164 140.22917,66.145831"
       id="path1009" />
    <path
       style="fill:none;stroke:#000000;stroke-width:0.774;stroke-linecap:butt;stroke-linejoin:miter;stroke-miterlimit:4;stroke-dasharray:none;stroke-opacity:1"
       d="M 171.97916,52.916665 129.64583,105.83333"
       id="path1011" />
    <path
       style="fill:none;stroke:#ff0000;stroke-width:0.774;stroke-linecap:butt;stroke-linejoin:miter;stroke-miterlimit:4;stroke-dasharray:none;stroke-opacity:1"
       d="m 119.0625,66.145831 31.75,39.687499"
       id="path1013" />
    <path
       style="fill:none;stroke:#000000;stroke-width:0.774;stroke-linecap:butt;stroke-linejoin:miter;stroke-miterlimit:4;stroke-dasharray:none;stroke-opacity:1"
       d="m 140.22917,66.145831 21.16666,26.458333"
       id="path1015" />
    <path
       style="fill:none;stroke:#000000;stroke-width:0.774;stroke-linecap:butt;stroke-linejoin:miter;stroke-miterlimit:4;stroke-dasharray:none;stroke-opacity:1"
       d="m 150.8125,52.916665 31.75,39.687499"
       id="path1017" />
    <ellipse
       style="fill:#000000;stroke:#000000;stroke-width:0.192088;stroke-opacity:1"
       id="path843-6-6-0-0-5"
       cx="92.629982"
       cy="92.711067"
       rx="0.96043754"
       ry="0.96043742" />
    <ellipse
       style="fill:#000000;stroke:#000000;stroke-width:0.192088;stroke-opacity:1"
       id="path843-6-6-0-0-2"
       cx="113.7429"
       cy="66.144608"
       rx="0.96043754"
       ry="0.96043742" />
    <ellipse
       style="fill:#000000;stroke:#000000;stroke-width:0.192088;stroke-opacity:1"
       id="path843-6-6-0-0-4"
       cx="119.08829"
       cy="66.159058"
       rx="0.96043754"
       ry="0.96043742" />
    <ellipse
       style="fill:#000000;stroke:#000000;stroke-width:0.192088;stroke-opacity:1"
       id="path843-6-6-0-0-29"
       cx="140.17574"
       cy="66.039185"
       rx="0.96043754"
       ry="0.96043742" />
    <ellipse
       style="fill:#000000;stroke:#000000;stroke-width:0.192088;stroke-opacity:1"
       id="path843-6-6-0-0-21"
       cx="119.1813"
       cy="92.590523"
       rx="0.96043754"
       ry="0.96043742" />
    <ellipse
       style="fill:#000000;stroke:#000000;stroke-width:0.192088;stroke-opacity:1"
       id="path843-6-6-0-0-59"
       cx="129.65787"
       cy="105.91405"
       rx="0.96043754"
       ry="0.96043742" />
    <ellipse
       style="fill:#000000;stroke:#000000;stroke-width:0.192088;stroke-opacity:1"
       id="path843-6-6-0-0-6"
       cx="150.70467"
       cy="105.83347"
       rx="0.96043754"
       ry="0.96043742" />
    <ellipse
       style="fill:#000000;stroke:#000000;stroke-width:0.192088;stroke-opacity:1"
       id="path843-6-6-0-0-9"
       cx="161.34172"
       cy="92.683533"
       rx="0.96043754"
       ry="0.96043742" />
    <ellipse
       style="fill:#000000;stroke:#000000;stroke-width:0.192088;stroke-opacity:1"
       id="path843-6-6-0-0-91"
       cx="182.5621"
       cy="92.563667"
       rx="0.96043754"
       ry="0.96043742" />
    <ellipse
       style="fill:#000000;stroke:#000000;stroke-width:0.192088;stroke-opacity:1"
       id="path843-6-6-0-0-52"
       cx="150.82318"
       cy="52.929214"
       rx="0.96043754"
       ry="0.96043742" />
    <ellipse
       style="fill:#000000;stroke:#000000;stroke-width:0.192088;stroke-opacity:1"
       id="path843-6-6-0-0-46"
       cx="172.08556"
       cy="53.0098"
       rx="0.96043754"
       ry="0.96043742" />
    <path
       style="fill:#00ff00;stroke:none;stroke-width:1.47753;stroke-miterlimit:4;stroke-dasharray:none"
       d="M 0.53473469,103.90331 V 54.658377 H 63.122104 c 48.910986,0 62.632396,0.135086 62.793426,0.618197 0.11334,0.340008 -16.70783,21.761556 -37.380372,47.603436 -32.384718,40.48279 -37.805812,47.03215 -39.171579,47.32413 -0.871826,0.18639 -2.052537,0.92507 -2.623802,1.6415 l -1.038662,1.30261 H 23.117925 0.53473469 Z"
       id="path1122"
       transform="matrix(0.26458333,0,0,0.26458333,79.374999,51.872733)" />
    <path
       style="fill:#00ff00;stroke:none;stroke-width:1.47753;stroke-miterlimit:4;stroke-dasharray:none"
       d="m 393.98915,152.47867 c 0,-1.14793 -2.26801,-2.86472 -3.82063,-2.89206 -1.35143,-0.0238 -4.7688,-4.13911 -38.60578,-46.49046 -20.41771,-25.555406 -37.19573,-46.908387 -37.2845,-47.451072 -0.1594,-0.974449 0.61671,-0.986701 62.50319,-0.986701 h 62.66458 v 49.244933 49.24494 h -22.72843 c -18.53809,0 -22.72843,-0.12345 -22.72843,-0.66958 z"
       id="path1138"
       transform="matrix(0.26458333,0,0,0.26458333,79.374999,51.872733)" />
    <path
       transform="matrix(0.26458333,0,0,0.26458333,79.374999,51.872733)"
       id="path923"
       d="m 53.886133,152.66856 c -0.263512,-0.57835 1.987218,-3.45216 37.271972,-47.59019 l 37.552425,-46.974672 0.95513,-0.01325 c 1.88888,-0.02621 3.77504,-1.331538 4.10683,-2.842164 l 0.1552,-0.706622 h 6.02126 6.02127 l 0.27796,0.842228 c 0.52699,1.596813 2.16426,2.693306 4.0216,2.693306 h 0.94451 l 18.29508,22.88145 c 10.06229,12.584796 18.2662,22.984474 18.2309,23.110384 -0.0353,0.12592 -8.24661,10.45532 -18.24735,22.95422 -17.24412,21.55167 -18.22462,22.72529 -18.98585,22.72529 -1.73611,0 -3.99261,1.76525 -3.99261,3.1234 0,0.37965 -3.63934,0.41213 -46.17394,0.41213 H 54.166579 Z"
       style="fill:#00ff00;stroke:none;stroke-width:0.738764" />
    <path
       transform="matrix(0.26458333,0,0,0.26458333,79.374999,51.872733)"
       id="path925"
       d="M 171.88523,78.720441 C 154.82581,57.397457 153.8131,56.075893 153.96206,55.33108 l 0.15788,-0.789418 h 35.8351 35.8351 l 0.24809,0.652537 c 0.13646,0.358896 0.16721,0.785054 0.0684,0.947018 -0.21438,0.351213 -35.35365,44.334733 -35.81866,44.833913 -0.2659,0.28543 -3.4547,-3.57084 -18.40269,-22.254689 z"
       style="fill:#00ff00;stroke:none;stroke-width:0.738764" />
    <path
       transform="matrix(0.26458333,0,0,0.26458333,79.374999,51.872733)"
       id="path927"
       d="m 211.03454,127.65823 c -10.38876,-12.98706 -18.8503,-23.71062 -18.80342,-23.83013 0.0469,-0.11951 8.37497,-10.575996 18.50688,-23.236636 17.72386,-22.147378 18.45322,-23.019345 19.25456,-23.019345 0.80144,0 1.52129,0.861104 19.05299,22.791567 10.02104,12.535362 18.37055,22.966724 18.55445,23.180794 0.28871,0.33606 -2.20193,3.56106 -18.2356,23.61232 -10.21349,12.77269 -18.76601,23.4236 -19.0056,23.66868 -0.4142,0.42369 -1.36428,-0.71533 -19.32426,-23.16725 z"
       style="fill:#00ff00;stroke:none;stroke-width:0.738764" />
    <path
       transform="matrix(0.26458333,0,0,0.26458333,79.374999,51.872733)"
       id="path929"
       d="m 154.29112,152.46332 -0.36192,-0.82075 18.03062,-22.55292 c 9.91684,-12.40411 18.11238,-22.46144 18.2123,-22.34963 0.15425,0.17262 36.23111,45.3256 36.93609,46.22838 0.19695,0.25222 -7.06055,0.31567 -36.10434,0.31567 h -36.35083 z"
       style="fill:#00ff00;stroke:none;stroke-width:0.738764" />
    <path
       transform="matrix(0.26458333,0,0,0.26458333,79.374999,51.872733)"
       id="path931"
       d="m 251.29594,129.90936 18.70264,-23.37471 18.17499,22.71912 c 17.48392,21.85527 18.16364,22.74406 17.87629,23.37472 l -0.2987,0.65558 h -36.57893 -36.57892 z"
       style="fill:#00ff00;stroke:none;stroke-width:0.738764" />
    <path
       transform="matrix(0.26458333,0,0,0.26458333,79.374999,51.872733)"
       id="path933"
       d="m 313.34253,152.33054 c -0.59655,-1.26178 -1.52302,-1.88134 -3.02979,-2.02612 l -1.25106,-0.12021 -18.49743,-23.11988 -18.49743,-23.11988 18.95492,-23.693452 c 14.81593,-18.519765 19.01926,-23.624039 19.24961,-23.375569 0.16208,0.174836 17.33555,21.62885 38.16326,47.675591 35.68575,44.62791 37.85535,47.39734 37.63934,48.04538 l -0.22922,0.68767 -36.02878,-0.007 -36.02877,-0.007 z"
       style="fill:#00ff00;stroke:none;stroke-width:0.738764" />
    <path
       transform="matrix(0.26458333,0,0,0.26458333,79.374999,51.872733)"
       id="path935"
       d="M 251.594,78.386086 C 235.60803,58.375699 233.37561,55.477824 233.60954,55.040717 c 0.26414,-0.49354 0.67341,-0.499055 37.03343,-0.499055 29.37631,0 36.71674,0.06345 36.51958,0.315672 -3.46273,4.429983 -37.03267,46.292226 -37.14976,46.326336 -0.092,0.0268 -8.38044,-10.232111 -18.41879,-22.797584 z"
       style="fill:#00ff00;stroke:none;stroke-width:0.738764" />
    <text
       xml:space="preserve"
       style="font-style:normal;font-weight:normal;font-size:10.5833px;line-height:1.25;font-family:sans-serif;fill:#000000;fill-opacity:1;stroke:none;stroke-width:0.264583"
       x="198.36162"
       y="94.235992"
       id="text917"><tspan
         sodipodi:role="line"
         id="tspan915"
         x="198.36162"
         y="94.235992"
         style="font-size:6.35px;stroke-width:0.264583">y1</tspan></text>
    <text
       id="text917-1"
       y="67.96299"
       x="198.22798"
       style="font-style:normal;font-weight:normal;font-size:10.5833px;line-height:1.25;font-family:sans-serif;fill:#000000;fill-opacity:1;stroke:none;stroke-width:0.264583"
       xml:space="preserve"><tspan
         style="font-size:6.35px;stroke-width:0.264583"
         y="67.96299"
         x="198.22798"
         id="tspan915-7"
         sodipodi:role="line">y2</tspan></text>
    <ellipse
       ry="0.96043742"
       rx="0.96043754"
       cy="79.413597"
       cx="129.60794"
       id="path843-6-6-0-0-23"
       style="fill:#ff0000;stroke:#ff0000;stroke-width:0.192088;stroke-opacity:1" />
  </g>
</svg>
