<?xml version="1.0" encoding="UTF-8" standalone="no"?>
<svg
   xmlns:dc="http://purl.org/dc/elements/1.1/"
   xmlns:cc="http://creativecommons.org/ns#"
   xmlns:rdf="http://www.w3.org/1999/02/22-rdf-syntax-ns#"
   xmlns:svg="http://www.w3.org/2000/svg"
   xmlns="http://www.w3.org/2000/svg"
   xmlns:sodipodi="http://sodipodi.sourceforge.net/DTD/sodipodi-0.dtd"
   xmlns:inkscape="http://www.inkscape.org/namespaces/inkscape"
   width="126.26099mm"
   height="55.097797mm"
   viewBox="0 0 126.26101 55.097796"
   version="1.1"
   id="svg48"
   inkscape:version="1.0 (4035a4fb49, 2020-05-01)"
   sodipodi:docname="intersections-2.svg">
  <defs
     id="defs42">
    <inkscape:perspective
       sodipodi:type="inkscape:persp3d"
       inkscape:vp_x="0 : 36.352026 : 1"
       inkscape:vp_y="0 : 1000 : 0"
       inkscape:vp_z="121.70835 : 36.352026 : 1"
       inkscape:persp3d-origin="60.854174 : 30.103436 : 1"
       id="perspective991" />
    <rect
       x="5.2916665"
       y="31.75"
       width="55.5625"
       height="29.104166"
       id="rect1262" />
    <marker
       inkscape:isstock="true"
       style="overflow:visible"
       id="marker1217"
       refX="0"
       refY="0"
       orient="auto"
       inkscape:stockid="Arrow1Lend">
      <path
         transform="matrix(-0.8,0,0,-0.8,-10,0)"
         style="fill:#000000;fill-opacity:1;fill-rule:evenodd;stroke:#000000;stroke-width:1pt;stroke-opacity:1"
         d="M 0,0 5,-5 -12.5,0 5,5 Z"
         id="path1215" />
    </marker>
    <rect
       id="rect1262-3"
       height="29.104166"
       width="55.5625"
       y="31.75"
       x="5.2916665" />
    <rect
       id="rect1275"
       height="29.104166"
       width="55.5625"
       y="31.75"
       x="5.2916665" />
    <rect
       id="rect1262-6"
       height="29.104166"
       width="55.5625"
       y="31.75"
       x="5.2916665" />
    <rect
       id="rect1304"
       height="29.104166"
       width="55.5625"
       y="31.75"
       x="5.2916665" />
    <rect
       x="5.2916665"
       y="31.75"
       width="55.5625"
       height="29.104166"
       id="rect1262-3-2" />
    <rect
       x="5.2916665"
       y="31.75"
       width="55.5625"
       height="29.104166"
       id="rect1333" />
    <rect
       id="rect1262-1"
       height="29.104166"
       width="55.5625"
       y="31.75"
       x="5.2916665" />
    <rect
       id="rect921"
       height="29.104166"
       width="55.5625"
       y="31.75"
       x="5.2916665" />
    <rect
       x="5.2916665"
       y="31.75"
       width="55.5625"
       height="29.104166"
       id="rect1262-3-7" />
    <rect
       x="5.2916665"
       y="31.75"
       width="55.5625"
       height="29.104166"
       id="rect951" />
    <rect
       id="rect1262-0"
       height="29.104166"
       width="55.5625"
       y="31.75"
       x="5.2916665" />
    <rect
       id="rect152"
       height="29.104166"
       width="55.5625"
       y="31.75"
       x="5.2916665" />
    <rect
       id="rect1262-34"
       height="29.104166"
       width="55.5625"
       y="31.75"
       x="5.2916665" />
    <rect
       id="rect152-8"
       height="29.104166"
       width="55.5625"
       y="31.75"
       x="5.2916665" />
    <rect
       id="rect1262-8"
       height="29.104166"
       width="55.5625"
       y="31.75"
       x="5.2916665" />
    <rect
       id="rect152-7"
       height="29.104166"
       width="55.5625"
       y="31.75"
       x="5.2916665" />
    <rect
       x="5.2916665"
       y="31.75"
       width="55.5625"
       height="29.104166"
       id="rect1262-3-6" />
    <rect
       x="5.2916665"
       y="31.75"
       width="55.5625"
       height="29.104166"
       id="rect214" />
    <rect
       x="5.2916665"
       y="31.75"
       width="55.5625"
       height="29.104166"
       id="rect1262-3-28" />
    <rect
       x="5.2916665"
       y="31.75"
       width="55.5625"
       height="29.104166"
       id="rect214-3" />
    <rect
       x="5.2916665"
       y="31.75"
       width="55.5625"
       height="29.104166"
       id="rect1262-3-8" />
    <rect
       x="5.2916665"
       y="31.75"
       width="55.5625"
       height="29.104166"
       id="rect214-4" />
    <rect
       x="5.2916665"
       y="31.75"
       width="55.5625"
       height="29.104166"
       id="rect1262-3-5" />
    <rect
       x="5.2916665"
       y="31.75"
       width="55.5625"
       height="29.104166"
       id="rect69" />
    <rect
       id="rect1262-3-5-8"
       height="29.104166"
       width="55.5625"
       y="31.75"
       x="5.2916665" />
    <rect
       id="rect1163"
       height="29.104166"
       width="55.5625"
       y="31.75"
       x="5.2916665" />
    <rect
       id="rect1262-3-5-5"
       height="29.104166"
       width="55.5625"
       y="31.75"
       x="5.2916665" />
    <rect
       id="rect1163-2"
       height="29.104166"
       width="55.5625"
       y="31.75"
       x="5.2916665" />
    <rect
       x="5.2916665"
       y="31.75"
       width="55.5625"
       height="29.104166"
       id="rect1262-3-5-5-1" />
    <rect
       x="5.2916665"
       y="31.75"
       width="55.5625"
       height="29.104166"
       id="rect1208" />
    <rect
       id="rect1262-3-5-5-1-0"
       height="29.104166"
       width="55.5625"
       y="31.75"
       x="5.2916665" />
    <rect
       id="rect1238"
       height="29.104166"
       width="55.5625"
       y="31.75"
       x="5.2916665" />
    <rect
       id="rect1262-3-74"
       height="29.104166"
       width="55.5625"
       y="31.75"
       x="5.2916665" />
    <rect
       id="rect898"
       height="29.104166"
       width="55.5625"
       y="31.75"
       x="5.2916665" />
  </defs>
  <sodipodi:namedview
     id="base"
     pagecolor="#ffffff"
     bordercolor="#666666"
     borderopacity="1.0"
     inkscape:pageopacity="0.0"
     inkscape:pageshadow="2"
     inkscape:zoom="11.2"
     inkscape:cx="150.6566"
     inkscape:cy="61.794727"
     inkscape:document-units="mm"
     inkscape:current-layer="layer1"
     inkscape:document-rotation="0"
     showgrid="true"
     fit-margin-top="0"
     fit-margin-left="0"
     fit-margin-right="0"
     fit-margin-bottom="0"
     inkscape:window-width="1920"
     inkscape:window-height="1017"
     inkscape:window-x="-8"
     inkscape:window-y="-8"
     inkscape:window-maximized="1">
    <inkscape:grid
       type="xygrid"
       id="grid82"
       spacingx="2.6458333"
       spacingy="2.6458333"
       originx="-79.375022"
       originy="-51.872734" />
  </sodipodi:namedview>
  <metadata
     id="metadata45">
    <rdf:RDF>
      <cc:Work
         rdf:about="">
        <dc:format>image/svg+xml</dc:format>
        <dc:type
           rdf:resource="http://purl.org/dc/dcmitype/StillImage" />
        <dc:title />
      </cc:Work>
    </rdf:RDF>
  </metadata>
  <g
     inkscape:label="Layer 1"
     inkscape:groupmode="layer"
     id="layer1"
     transform="translate(-79.374999,-51.872733)">
    <path
       id="path901"
       d="M 79.374999,92.604164 H 195.79166"
       style="fill:none;stroke:#000000;stroke-width:0.261627px;stroke-linecap:butt;stroke-linejoin:miter;stroke-opacity:1" />
    <path
       id="path903"
       d="M 79.374999,66.145832 H 195.79166"
       style="fill:none;stroke:#000000;stroke-width:0.262;stroke-linecap:butt;stroke-linejoin:miter;stroke-opacity:1;stroke-miterlimit:4;stroke-dasharray:0.786,0.262;stroke-dashoffset:0" />
    <path
       id="path1005"
       d="M 92.604165,92.604164 113.77083,66.145831"
       style="fill:none;stroke:#0000ff;stroke-width:0.774;stroke-linecap:butt;stroke-linejoin:miter;stroke-miterlimit:4;stroke-dasharray:none;stroke-opacity:1" />
    <path
       id="path1009"
       d="M 119.0625,92.604164 140.22917,66.145831"
       style="fill:none;stroke:#000000;stroke-width:0.774;stroke-linecap:butt;stroke-linejoin:miter;stroke-miterlimit:4;stroke-dasharray:none;stroke-opacity:1" />
    <path
       id="path1011"
       d="M 171.97916,52.916665 129.64583,105.83333"
       style="fill:none;stroke:#000000;stroke-width:0.774;stroke-linecap:butt;stroke-linejoin:miter;stroke-miterlimit:4;stroke-dasharray:none;stroke-opacity:1" />
    <path
       id="path1013"
       d="m 119.0625,66.145831 31.75,39.687499"
       style="fill:none;stroke:#000000;stroke-width:0.774;stroke-linecap:butt;stroke-linejoin:miter;stroke-miterlimit:4;stroke-dasharray:none;stroke-opacity:1" />
    <path
       id="path1015"
       d="m 140.22917,66.145831 21.16666,26.458333"
       style="fill:none;stroke:#000000;stroke-width:0.774;stroke-linecap:butt;stroke-linejoin:miter;stroke-miterlimit:4;stroke-dasharray:none;stroke-opacity:1" />
    <path
       id="path1017"
       d="m 150.8125,52.916665 31.75,39.687499"
       style="fill:none;stroke:#000000;stroke-width:0.774;stroke-linecap:butt;stroke-linejoin:miter;stroke-miterlimit:4;stroke-dasharray:none;stroke-opacity:1" />
    <ellipse
       ry="0.96043742"
       rx="0.96043754"
       cy="92.711067"
       cx="92.629982"
       id="path843-6-6-0-0-5"
       style="fill:#000000;stroke:#000000;stroke-width:0.192088;stroke-opacity:1" />
    <ellipse
       ry="0.96043742"
       rx="0.96043754"
       cy="66.144608"
       cx="113.7429"
       id="path843-6-6-0-0-2"
       style="fill:#000000;stroke:#000000;stroke-width:0.192088;stroke-opacity:1" />
    <ellipse
       ry="0.96043742"
       rx="0.96043754"
       cy="66.159058"
       cx="119.08829"
       id="path843-6-6-0-0-4"
       style="fill:#000000;stroke:#000000;stroke-width:0.192088;stroke-opacity:1" />
    <ellipse
       ry="0.96043742"
       rx="0.96043754"
       cy="66.039185"
       cx="140.17574"
       id="path843-6-6-0-0-29"
       style="fill:#000000;stroke:#000000;stroke-width:0.192088;stroke-opacity:1" />
    <ellipse
       ry="0.96043742"
       rx="0.96043754"
       cy="92.590523"
       cx="119.1813"
       id="path843-6-6-0-0-21"
       style="fill:#000000;stroke:#000000;stroke-width:0.192088;stroke-opacity:1" />
    <ellipse
       ry="0.96043742"
       rx="0.96043754"
       cy="105.91405"
       cx="129.65787"
       id="path843-6-6-0-0-59"
       style="fill:#000000;stroke:#000000;stroke-width:0.192088;stroke-opacity:1" />
    <ellipse
       ry="0.96043742"
       rx="0.96043754"
       cy="105.83347"
       cx="150.70467"
       id="path843-6-6-0-0-6"
       style="fill:#000000;stroke:#000000;stroke-width:0.192088;stroke-opacity:1" />
    <ellipse
       ry="0.96043742"
       rx="0.96043754"
       cy="92.683533"
       cx="161.34172"
       id="path843-6-6-0-0-9"
       style="fill:#000000;stroke:#000000;stroke-width:0.192088;stroke-opacity:1" />
    <ellipse
       ry="0.96043742"
       rx="0.96043754"
       cy="92.563667"
       cx="182.5621"
       id="path843-6-6-0-0-91"
       style="fill:#000000;stroke:#000000;stroke-width:0.192088;stroke-opacity:1" />
    <ellipse
       ry="0.96043742"
       rx="0.96043754"
       cy="52.929214"
       cx="150.82318"
       id="path843-6-6-0-0-52"
       style="fill:#000000;stroke:#000000;stroke-width:0.192088;stroke-opacity:1" />
    <ellipse
       ry="0.96043742"
       rx="0.96043754"
       cy="53.0098"
       cx="172.08556"
       id="path843-6-6-0-0-46"
       style="fill:#000000;stroke:#000000;stroke-width:0.192088;stroke-opacity:1" />
    <path
       transform="matrix(0.26458333,0,0,0.26458333,79.374999,51.872733)"
       id="path1122"
       d="M 0.53473469,103.90331 V 54.658377 H 63.122104 c 48.910986,0 62.632396,0.135086 62.793426,0.618197 0.11334,0.340008 -16.70783,21.761556 -37.380372,47.603436 -32.384718,40.48279 -37.805812,47.03215 -39.171579,47.32413 -0.871826,0.18639 -2.052537,0.92507 -2.623802,1.6415 l -1.038662,1.30261 H 23.117925 0.53473469 Z"
       style="fill:#00ff00;stroke:none;stroke-width:1.47753;stroke-miterlimit:4;stroke-dasharray:none" />
    <path
       transform="matrix(0.26458333,0,0,0.26458333,79.374999,51.872733)"
       id="path1138"
       d="m 393.98915,152.47867 c 0,-1.14793 -2.26801,-2.86472 -3.82063,-2.89206 -1.35143,-0.0238 -4.7688,-4.13911 -38.60578,-46.49046 -20.41771,-25.555406 -37.19573,-46.908387 -37.2845,-47.451072 -0.1594,-0.974449 0.61671,-0.986701 62.50319,-0.986701 h 62.66458 v 49.244933 49.24494 h -22.72843 c -18.53809,0 -22.72843,-0.12345 -22.72843,-0.66958 z"
       style="fill:#00ff00;stroke:none;stroke-width:1.47753;stroke-miterlimit:4;stroke-dasharray:none" />
    <path
       transform="matrix(0.26458333,0,0,0.26458333,79.374999,51.872733)"
       id="path1580"
       d="m 53.804858,152.6917 -0.227459,-0.68921 37.620092,-47.02464 37.620089,-47.024649 0.77558,0.04769 c 0.42656,0.02623 1.12496,-0.05611 1.55199,-0.182989 1.02161,-0.303528 2.31807,-1.593921 2.6189,-2.60664 l 0.22544,-0.758928 h 6.06426 c 5.98469,0 6.06426,0.0048 6.06426,0.364257 0,0.520211 0.59564,1.607756 1.189,2.170913 0.73282,0.695522 1.68466,1.036258 2.89474,1.036258 h 1.0595 l 18.32232,22.901786 c 10.07728,12.595982 18.2862,22.996972 18.24204,23.113312 -0.0442,0.11633 -8.28157,10.46232 -18.30539,22.99107 l -18.22511,22.77955 -0.84748,0.002 c -1.76968,0.004 -3.60515,1.39981 -3.89893,2.96576 l -0.11329,0.60388 H 100.23386 54.032318 Z"
       style="fill:#00ff00;stroke-width:0.522385" />
    <path
       transform="matrix(0.26458333,0,0,0.26458333,79.374999,51.872733)"
       id="path1582"
       d="m 171.81954,78.693506 -18.13775,-22.688319 0.27936,-0.77686 0.27936,-0.776859 35.78823,0.04508 35.78823,0.04508 0.26539,0.727887 0.26539,0.727888 -17.905,22.397112 c -9.84775,12.318412 -18.0356,22.529905 -18.19523,22.692205 -0.26882,0.27334 -1.6282,-1.378546 -18.42798,-22.39321 z"
       style="fill:#00ff00;stroke-width:0.522385" />
    <path
       transform="matrix(0.26458333,0,0,0.26458333,79.374999,51.872733)"
       id="path1584"
       d="m 154.27323,152.4758 c -0.20375,-0.57366 -0.26125,-0.98237 -0.15702,-1.11607 4.05237,-5.19869 35.84222,-44.76255 35.93839,-44.72691 0.0767,0.0284 8.54396,10.55836 18.81619,23.39987 l 18.67677,23.34822 H 191.07113 154.5947 Z"
       style="fill:#00ff00;stroke-width:0.522385" />
    <path
       transform="matrix(0.26458333,0,0,0.26458333,79.374999,51.872733)"
       id="path1586"
       d="m 210.99279,127.66049 -18.96451,-23.72108 18.398,-23.002465 c 10.11891,-12.651355 18.45204,-23.055292 18.51809,-23.11986 0.066,-0.06457 0.53286,-0.144925 1.03738,-0.178572 l 0.91732,-0.06118 18.50344,23.125 c 10.17689,12.71875 18.46731,23.220167 18.42315,23.336477 -0.0849,0.2235 -37.08063,46.54217 -37.57812,47.04778 -0.26881,0.2732 -1.69049,-1.45648 -19.25475,-23.42611 z"
       style="fill:#00ff00;stroke-width:0.522385" />
    <path
       transform="matrix(0.26458333,0,0,0.26458333,79.374999,51.872733)"
       id="path1588"
       d="m 232.67747,153.15769 c 4.64152,-5.93312 37.28093,-46.56054 37.37733,-46.52487 0.19113,0.0707 36.24178,45.1517 36.24178,45.31999 0,0.074 -0.12161,0.42555 -0.27025,0.78129 l -0.27026,0.64681 h -36.62661 c -29.27537,0 -36.59156,-0.0448 -36.45199,-0.22322 z"
       style="fill:#00ff00;stroke-width:0.522385" />
    <path
       transform="matrix(0.26458333,0,0,0.26458333,79.374999,51.872733)"
       id="path1590"
       d="M 251.68353,78.523143 C 232.85938,54.977887 233.23559,55.478484 233.76116,54.675126 c 0.11657,-0.178185 7.62636,-0.21448 36.94805,-0.178572 l 36.80174,0.04507 -18.56632,23.214285 C 278.73315,90.523766 270.28358,101.0624 270.1678,101.17509 270.00762,101.331 265.58889,95.915972 251.68353,78.523143 Z"
       style="fill:#00ff00;stroke-width:0.522385" />
    <path
       transform="matrix(0.26458333,0,0,0.26458333,79.374999,51.872733)"
       id="path1592"
       d="m 313.63475,152.81645 c -0.51522,-1.47795 -2.1886,-2.64983 -3.78383,-2.64983 h -0.83982 l -18.49138,-23.11355 -18.49138,-23.11355 18.94324,-23.679243 c 10.41879,-13.023581 19.00616,-23.655964 19.08305,-23.627517 0.15898,0.05881 76.24195,95.13666 76.24195,95.27651 0,0.05 -0.0931,0.40158 -0.20684,0.78128 l -0.20683,0.69036 h -36.0257 -36.02569 z"
       style="fill:#00ff00;stroke-width:0.522385" />
    <text
       id="text917"
       y="94.076164"
       x="198.38713"
       style="font-style:normal;font-weight:normal;font-size:10.5833px;line-height:1.25;font-family:sans-serif;fill:#000000;fill-opacity:1;stroke:none;stroke-width:0.264583"
       xml:space="preserve"><tspan
         style="font-size:6.35px;stroke-width:0.264583"
         y="94.076164"
         x="198.38713"
         id="tspan915"
         sodipodi:role="line">y1</tspan></text>
    <text
       xml:space="preserve"
       style="font-style:normal;font-weight:normal;font-size:10.5833px;line-height:1.25;font-family:sans-serif;fill:#000000;fill-opacity:1;stroke:none;stroke-width:0.264583"
       x="198.25349"
       y="67.803162"
       id="text917-1"><tspan
         sodipodi:role="line"
         id="tspan915-7"
         x="198.25349"
         y="67.803162"
         style="font-size:6.35px;stroke-width:0.264583">y2</tspan></text>
  </g>
</svg>
