<?xml version="1.0" encoding="UTF-8" standalone="no"?>
<svg
   xmlns:dc="http://purl.org/dc/elements/1.1/"
   xmlns:cc="http://creativecommons.org/ns#"
   xmlns:rdf="http://www.w3.org/1999/02/22-rdf-syntax-ns#"
   xmlns:svg="http://www.w3.org/2000/svg"
   xmlns="http://www.w3.org/2000/svg"
   xmlns:sodipodi="http://sodipodi.sourceforge.net/DTD/sodipodi-0.dtd"
   xmlns:inkscape="http://www.inkscape.org/namespaces/inkscape"
   sodipodi:docname="join-polygons.svg"
   inkscape:version="1.0 (4035a4fb49, 2020-05-01)"
   id="svg48"
   version="1.1"
   viewBox="0 0 92.604172 37.389899"
   height="37.3899mm"
   width="92.604172mm">
  <defs
     id="defs42">
    <inkscape:perspective
       id="perspective991"
       inkscape:persp3d-origin="60.854164 : 31.649729 : 1"
       inkscape:vp_z="121.70833 : 37.898318 : 1"
       inkscape:vp_y="0 : 999.99996 : 0"
       inkscape:vp_x="0 : 37.898318 : 1"
       sodipodi:type="inkscape:persp3d" />
    <rect
       id="rect1262"
       height="29.104166"
       width="55.5625"
       y="31.75"
       x="5.2916665" />
    <marker
       inkscape:stockid="Arrow1Lend"
       orient="auto"
       refY="0"
       refX="0"
       id="marker1217"
       style="overflow:visible"
       inkscape:isstock="true">
      <path
         id="path1215"
         d="M 0,0 5,-5 -12.5,0 5,5 Z"
         style="fill:#000000;fill-opacity:1;fill-rule:evenodd;stroke:#000000;stroke-width:1pt;stroke-opacity:1"
         transform="matrix(-0.8,0,0,-0.8,-10,0)" />
    </marker>
    <rect
       x="5.2916665"
       y="31.75"
       width="55.5625"
       height="29.104166"
       id="rect1262-3" />
    <rect
       x="5.2916665"
       y="31.75"
       width="55.5625"
       height="29.104166"
       id="rect1275" />
    <rect
       x="5.2916665"
       y="31.75"
       width="55.5625"
       height="29.104166"
       id="rect1262-6" />
    <rect
       x="5.2916665"
       y="31.75"
       width="55.5625"
       height="29.104166"
       id="rect1304" />
    <rect
       id="rect1262-3-2"
       height="29.104166"
       width="55.5625"
       y="31.75"
       x="5.2916665" />
    <rect
       id="rect1333"
       height="29.104166"
       width="55.5625"
       y="31.75"
       x="5.2916665" />
    <rect
       x="5.2916665"
       y="31.75"
       width="55.5625"
       height="29.104166"
       id="rect1262-1" />
    <rect
       x="5.2916665"
       y="31.75"
       width="55.5625"
       height="29.104166"
       id="rect921" />
    <rect
       id="rect1262-3-7"
       height="29.104166"
       width="55.5625"
       y="31.75"
       x="5.2916665" />
    <rect
       id="rect951"
       height="29.104166"
       width="55.5625"
       y="31.75"
       x="5.2916665" />
    <rect
       x="5.2916665"
       y="31.75"
       width="55.5625"
       height="29.104166"
       id="rect1262-0" />
    <rect
       x="5.2916665"
       y="31.75"
       width="55.5625"
       height="29.104166"
       id="rect152" />
    <rect
       x="5.2916665"
       y="31.75"
       width="55.5625"
       height="29.104166"
       id="rect1262-34" />
    <rect
       x="5.2916665"
       y="31.75"
       width="55.5625"
       height="29.104166"
       id="rect152-8" />
    <rect
       x="5.2916665"
       y="31.75"
       width="55.5625"
       height="29.104166"
       id="rect1262-8" />
    <rect
       x="5.2916665"
       y="31.75"
       width="55.5625"
       height="29.104166"
       id="rect152-7" />
    <rect
       id="rect1262-3-6"
       height="29.104166"
       width="55.5625"
       y="31.75"
       x="5.2916665" />
    <rect
       id="rect214"
       height="29.104166"
       width="55.5625"
       y="31.75"
       x="5.2916665" />
    <rect
       id="rect1262-3-28"
       height="29.104166"
       width="55.5625"
       y="31.75"
       x="5.2916665" />
    <rect
       id="rect214-3"
       height="29.104166"
       width="55.5625"
       y="31.75"
       x="5.2916665" />
    <rect
       id="rect1262-3-8"
       height="29.104166"
       width="55.5625"
       y="31.75"
       x="5.2916665" />
    <rect
       id="rect214-4"
       height="29.104166"
       width="55.5625"
       y="31.75"
       x="5.2916665" />
    <rect
       id="rect1262-3-5"
       height="29.104166"
       width="55.5625"
       y="31.75"
       x="5.2916665" />
    <rect
       id="rect69"
       height="29.104166"
       width="55.5625"
       y="31.75"
       x="5.2916665" />
    <rect
       x="5.2916665"
       y="31.75"
       width="55.5625"
       height="29.104166"
       id="rect1262-3-5-8" />
    <rect
       x="5.2916665"
       y="31.75"
       width="55.5625"
       height="29.104166"
       id="rect1163" />
    <rect
       x="5.2916665"
       y="31.75"
       width="55.5625"
       height="29.104166"
       id="rect1262-3-5-5" />
    <rect
       x="5.2916665"
       y="31.75"
       width="55.5625"
       height="29.104166"
       id="rect1163-2" />
    <rect
       id="rect1262-3-5-5-1"
       height="29.104166"
       width="55.5625"
       y="31.75"
       x="5.2916665" />
    <rect
       id="rect1208"
       height="29.104166"
       width="55.5625"
       y="31.75"
       x="5.2916665" />
    <rect
       x="5.2916665"
       y="31.75"
       width="55.5625"
       height="29.104166"
       id="rect1262-3-5-5-1-0" />
    <rect
       x="5.2916665"
       y="31.75"
       width="55.5625"
       height="29.104166"
       id="rect1238" />
    <rect
       x="5.2916665"
       y="31.75"
       width="55.5625"
       height="29.104166"
       id="rect1262-3-74" />
    <rect
       x="5.2916665"
       y="31.75"
       width="55.5625"
       height="29.104166"
       id="rect898" />
  </defs>
  <sodipodi:namedview
     inkscape:window-maximized="1"
     inkscape:window-y="-8"
     inkscape:window-x="-8"
     inkscape:window-height="1017"
     inkscape:window-width="1920"
     fit-margin-bottom="0"
     fit-margin-right="0"
     fit-margin-left="0"
     fit-margin-top="0"
     showgrid="true"
     inkscape:document-rotation="0"
     inkscape:current-layer="layer1"
     inkscape:document-units="mm"
     inkscape:cy="11.239051"
     inkscape:cx="197.95209"
     inkscape:zoom="2.8"
     inkscape:pageshadow="2"
     inkscape:pageopacity="0.0"
     borderopacity="1.0"
     bordercolor="#666666"
     pagecolor="#ffffff"
     id="base">
    <inkscape:grid
       originy="0.12329629"
       originx="-105.83333"
       spacingy="2.6458333"
       spacingx="2.6458333"
       id="grid82"
       type="xygrid" />
  </sodipodi:namedview>
  <metadata
     id="metadata45">
    <rdf:RDF>
      <cc:Work
         rdf:about="">
        <dc:format>image/svg+xml</dc:format>
        <dc:type
           rdf:resource="http://purl.org/dc/dcmitype/StillImage" />
        <dc:title />
      </cc:Work>
    </rdf:RDF>
  </metadata>
  <g
     transform="translate(-105.83333,0.123297)"
     id="layer1"
     inkscape:groupmode="layer"
     inkscape:label="Layer 1">
    <path
       style="fill:#0000ff;stroke:#0000ff;stroke-width:0.774;stroke-linecap:butt;stroke-linejoin:miter;stroke-miterlimit:4;stroke-dasharray:none;stroke-opacity:1"
       d="M 177.27083,18.520831 190.5,37.041665"
       id="path929-5" />
    <path
       id="path929"
       d="M 153.45833,18.520832 166.6875,37.041665"
       style="fill:#0000ff;stroke:#0000ff;stroke-width:0.774;stroke-linecap:butt;stroke-linejoin:miter;stroke-miterlimit:4;stroke-dasharray:none;stroke-opacity:1" />
    <path
       id="path931"
       d="M 140.22916,37.041664 153.45833,18.520832"
       style="fill:#0000ff;stroke:#0000ff;stroke-width:0.774;stroke-linecap:butt;stroke-linejoin:miter;stroke-miterlimit:4;stroke-dasharray:none;stroke-opacity:1" />
    <path
       style="fill:none;stroke:#000000;stroke-width:0.143925;stroke-linecap:butt;stroke-linejoin:miter;stroke-miterlimit:4;stroke-dasharray:none;stroke-opacity:1"
       d="M 105.83333,18.520832 H 198.4375"
       id="path68"
       sodipodi:nodetypes="cc" />
    <path
       style="fill:#0000ff;stroke:#0000ff;stroke-width:0.774;stroke-linecap:butt;stroke-linejoin:miter;stroke-miterlimit:4;stroke-dasharray:none;stroke-opacity:1"
       d="M 113.77083,37.041665 127,18.520833"
       id="path931-2" />
    <path
       id="path989"
       d="m 127,18.520832 h 50.27083"
       style="fill:none;stroke:#000000;stroke-width:0.626497;stroke-linecap:butt;stroke-linejoin:miter;stroke-miterlimit:4;stroke-dasharray:none;stroke-opacity:1" />
    <ellipse
       ry="0.96043742"
       rx="0.96043754"
       cy="18.533241"
       cx="127.01664"
       id="path843-6-6-0-0"
       style="fill:#000000;stroke:#000000;stroke-width:0.192088;stroke-opacity:1" />
    <ellipse
       ry="0.96043742"
       rx="0.96043754"
       cy="18.520962"
       cx="153.61911"
       id="path843-6-6-0-4"
       style="fill:#000000;stroke:#000000;stroke-width:0.192088;stroke-opacity:1" />
    <ellipse
       ry="0.96043742"
       rx="0.96043754"
       cy="18.526836"
       cx="177.33221"
       id="path843-6-6-0-07"
       style="fill:#000000;stroke:#000000;stroke-width:0.192088;stroke-opacity:1" />
    <path
       id="path891"
       d="M 177.27083,18.520832 129.64583,-7.1148526e-7"
       style="fill:none;stroke:#000000;stroke-width:0.264583;stroke-linecap:butt;stroke-linejoin:miter;stroke-miterlimit:4;stroke-dasharray:1.05833, 0.264583;stroke-dashoffset:0;stroke-opacity:1" />
    <path
       transform="matrix(0.26458333,0,0,0.26458333,105.83333,-0.12120053)"
       id="path893"
       d="M 0.72862002,35.465778 V 1.0014924 H 45.089855 89.451094 l 87.477486,34.0178566 87.47748,34.017857 -39.70869,0.09084 -39.70869,0.09084 -1.36045,-1.430125 c -1.09443,-1.15049 -1.61113,-1.430125 -2.64249,-1.430125 -1.87072,0 -3.06263,0.565225 -3.75402,1.780228 l -0.61024,1.072397 -46.31522,0.0021 -46.315219,0.0021 -0.234529,-0.738928 c -0.33635,-1.059743 -2.264714,-2.115325 -3.867178,-2.116879 -1.088522,-0.0011 -1.627997,0.251661 -2.589286,1.21295 -0.667857,0.667857 -1.214286,1.471429 -1.214286,1.785715 0,0.5202 -3.377975,0.571428 -37.678571,0.571428 l -37.67857098,2.32e-4 z"
       style="fill:#00ff00;stroke:none;stroke-width:0.359055;stroke-miterlimit:4;stroke-dasharray:1.43622, 0.359055;stroke-dashoffset:0" />
    <path
       transform="matrix(0.26458333,0,0,0.26458333,105.83333,-0.12120053)"
       id="path895"
       d="M 0.72862002,105.46578 V 71.001492 H 38.365555 76.002494 l 0.162093,0.847948 c 0.128875,0.674162 -4.748443,7.733986 -23.79765,34.44665 L 28.407191,139.8948 14.567906,139.9124 0.72862002,139.93 Z"
       style="fill:#00ff00;stroke:none;stroke-width:0.357705;stroke-dasharray:1.43082, 0.357705" />
    <path
       transform="matrix(0.26458333,0,0,0.26458333,105.83333,-0.12120053)"
       id="path899"
       d="m 274.30005,69.399985 c 0,-0.291547 -0.46896,-1.05494 -1.04214,-1.696429 -0.9447,-1.057307 -1.2314,-1.16635 -3.06663,-1.16635 -1.72834,0 -2.13936,0.133529 -2.80961,0.912736 l -0.7851,0.912732 L 181.43045,35.23748 C 134.58909,17.018624 95.701834,1.8779757 95.014334,1.5915962 93.915775,1.1339893 109.2438,1.0667013 221.53219,1.0361993 L 349.30005,1.0014924 V 35.465778 69.930063 h -37.5 c -32.91808,0 -37.5,-0.06477 -37.5,-0.530078 z"
       style="fill:#ffff00;stroke:none;stroke-width:0.357705;stroke-dasharray:1.43082, 0.357705" />
    <path
       transform="matrix(0.26458333,0,0,0.26458333,105.83333,-0.12120053)"
       id="path901"
       d="M 297.76331,106.48495 C 276.23822,76.326714 273.92722,72.957349 274.13097,72.029694 l 0.22583,-1.028202 h 37.47162 37.47163 v 34.464288 34.46428 l -13.83929,-0.009 -13.83929,-0.009 z"
       style="fill:#ffff00;stroke:none;stroke-width:0.357705;stroke-dasharray:1.43082, 0.357705" />
  </g>
</svg>
