<?xml version="1.0" encoding="UTF-8" standalone="no"?>
<svg
   xmlns:dc="http://purl.org/dc/elements/1.1/"
   xmlns:cc="http://creativecommons.org/ns#"
   xmlns:rdf="http://www.w3.org/1999/02/22-rdf-syntax-ns#"
   xmlns:svg="http://www.w3.org/2000/svg"
   xmlns="http://www.w3.org/2000/svg"
   xmlns:sodipodi="http://sodipodi.sourceforge.net/DTD/sodipodi-0.dtd"
   xmlns:inkscape="http://www.inkscape.org/namespaces/inkscape"
   sodipodi:docname="process-edges-4.svg"
   inkscape:version="1.0 (4035a4fb49, 2020-05-01)"
   id="svg48"
   version="1.1"
   viewBox="0 0 121.70833 37.491542"
   height="37.491543mm"
   width="121.70833mm">
  <defs
     id="defs42">
    <inkscape:perspective
       id="perspective991"
       inkscape:persp3d-origin="60.854165 : 12.497181 : 1"
       inkscape:vp_z="121.70833 : 18.745771 : 1"
       inkscape:vp_y="0 : 1000 : 0"
       inkscape:vp_x="0 : 18.745771 : 1"
       sodipodi:type="inkscape:persp3d" />
    <rect
       id="rect1262"
       height="29.104166"
       width="55.5625"
       y="31.75"
       x="5.2916665" />
    <marker
       inkscape:stockid="Arrow1Lend"
       orient="auto"
       refY="0"
       refX="0"
       id="marker1217"
       style="overflow:visible"
       inkscape:isstock="true">
      <path
         id="path1215"
         d="M 0,0 5,-5 -12.5,0 5,5 Z"
         style="fill:#000000;fill-opacity:1;fill-rule:evenodd;stroke:#000000;stroke-width:1pt;stroke-opacity:1"
         transform="matrix(-0.8,0,0,-0.8,-10,0)" />
    </marker>
    <rect
       x="5.2916665"
       y="31.75"
       width="55.5625"
       height="29.104166"
       id="rect1262-3" />
    <rect
       x="5.2916665"
       y="31.75"
       width="55.5625"
       height="29.104166"
       id="rect1275" />
    <rect
       x="5.2916665"
       y="31.75"
       width="55.5625"
       height="29.104166"
       id="rect1262-6" />
    <rect
       x="5.2916665"
       y="31.75"
       width="55.5625"
       height="29.104166"
       id="rect1304" />
    <rect
       id="rect1262-3-2"
       height="29.104166"
       width="55.5625"
       y="31.75"
       x="5.2916665" />
    <rect
       id="rect1333"
       height="29.104166"
       width="55.5625"
       y="31.75"
       x="5.2916665" />
    <rect
       x="5.2916665"
       y="31.75"
       width="55.5625"
       height="29.104166"
       id="rect1262-1" />
    <rect
       x="5.2916665"
       y="31.75"
       width="55.5625"
       height="29.104166"
       id="rect921" />
    <rect
       id="rect1262-3-7"
       height="29.104166"
       width="55.5625"
       y="31.75"
       x="5.2916665" />
    <rect
       id="rect951"
       height="29.104166"
       width="55.5625"
       y="31.75"
       x="5.2916665" />
    <rect
       x="5.2916665"
       y="31.75"
       width="55.5625"
       height="29.104166"
       id="rect1262-0" />
    <rect
       x="5.2916665"
       y="31.75"
       width="55.5625"
       height="29.104166"
       id="rect152" />
    <rect
       x="5.2916665"
       y="31.75"
       width="55.5625"
       height="29.104166"
       id="rect1262-34" />
    <rect
       x="5.2916665"
       y="31.75"
       width="55.5625"
       height="29.104166"
       id="rect152-8" />
    <rect
       x="5.2916665"
       y="31.75"
       width="55.5625"
       height="29.104166"
       id="rect1262-8" />
    <rect
       x="5.2916665"
       y="31.75"
       width="55.5625"
       height="29.104166"
       id="rect152-7" />
    <rect
       id="rect1262-3-6"
       height="29.104166"
       width="55.5625"
       y="31.75"
       x="5.2916665" />
    <rect
       id="rect214"
       height="29.104166"
       width="55.5625"
       y="31.75"
       x="5.2916665" />
    <rect
       id="rect1262-3-28"
       height="29.104166"
       width="55.5625"
       y="31.75"
       x="5.2916665" />
    <rect
       id="rect214-3"
       height="29.104166"
       width="55.5625"
       y="31.75"
       x="5.2916665" />
    <rect
       id="rect1262-3-8"
       height="29.104166"
       width="55.5625"
       y="31.75"
       x="5.2916665" />
    <rect
       id="rect214-4"
       height="29.104166"
       width="55.5625"
       y="31.75"
       x="5.2916665" />
    <rect
       id="rect1262-3-5"
       height="29.104166"
       width="55.5625"
       y="31.75"
       x="5.2916665" />
    <rect
       id="rect69"
       height="29.104166"
       width="55.5625"
       y="31.75"
       x="5.2916665" />
    <rect
       x="5.2916665"
       y="31.75"
       width="55.5625"
       height="29.104166"
       id="rect1262-3-5-8" />
    <rect
       x="5.2916665"
       y="31.75"
       width="55.5625"
       height="29.104166"
       id="rect1163" />
    <rect
       x="5.2916665"
       y="31.75"
       width="55.5625"
       height="29.104166"
       id="rect1262-3-5-5" />
    <rect
       x="5.2916665"
       y="31.75"
       width="55.5625"
       height="29.104166"
       id="rect1163-2" />
    <rect
       id="rect1262-3-5-5-1"
       height="29.104166"
       width="55.5625"
       y="31.75"
       x="5.2916665" />
    <rect
       id="rect1208"
       height="29.104166"
       width="55.5625"
       y="31.75"
       x="5.2916665" />
    <rect
       x="5.2916665"
       y="31.75"
       width="55.5625"
       height="29.104166"
       id="rect1262-3-5-5-1-0" />
    <rect
       x="5.2916665"
       y="31.75"
       width="55.5625"
       height="29.104166"
       id="rect1238" />
    <rect
       x="5.2916665"
       y="31.75"
       width="55.5625"
       height="29.104166"
       id="rect1262-3-74" />
    <rect
       x="5.2916665"
       y="31.75"
       width="55.5625"
       height="29.104166"
       id="rect898" />
  </defs>
  <sodipodi:namedview
     inkscape:window-maximized="1"
     inkscape:window-y="-8"
     inkscape:window-x="-8"
     inkscape:window-height="1017"
     inkscape:window-width="1920"
     fit-margin-bottom="0"
     fit-margin-right="0"
     fit-margin-left="0"
     fit-margin-top="0"
     showgrid="true"
     inkscape:document-rotation="0"
     inkscape:current-layer="layer1"
     inkscape:document-units="mm"
     inkscape:cy="91.223905"
     inkscape:cx="148.83503"
     inkscape:zoom="1.979899"
     inkscape:pageshadow="2"
     inkscape:pageopacity="0.0"
     borderopacity="1.0"
     bordercolor="#666666"
     pagecolor="#ffffff"
     id="base">
    <inkscape:grid
       originy="0.22493854"
       originx="-87.312502"
       spacingy="2.6458333"
       spacingx="2.6458333"
       id="grid82"
       type="xygrid" />
  </sodipodi:namedview>
  <metadata
     id="metadata45">
    <rdf:RDF>
      <cc:Work
         rdf:about="">
        <dc:format>image/svg+xml</dc:format>
        <dc:type
           rdf:resource="http://purl.org/dc/dcmitype/StillImage" />
        <dc:title />
      </cc:Work>
    </rdf:RDF>
  </metadata>
  <g
     transform="translate(-87.312502,0.22493924)"
     id="layer1"
     inkscape:groupmode="layer"
     inkscape:label="Layer 1">
    <path
       style="fill:#0000ff;stroke:#0000ff;stroke-width:0.774;stroke-linecap:butt;stroke-linejoin:miter;stroke-miterlimit:4;stroke-dasharray:none;stroke-opacity:1"
       d="M 185.20833,18.520831 198.4375,37.041665"
       id="path929-5" />
    <path
       style="fill:none;stroke:#ff0000;stroke-width:0.774;stroke-linecap:butt;stroke-linejoin:miter;stroke-miterlimit:4;stroke-dasharray:none;stroke-opacity:1"
       d="M 145.52083,18.520832 132.29167,4e-7"
       id="path911-1" />
    <path
       style="fill:none;stroke:#ff0000;stroke-width:0.774;stroke-linecap:butt;stroke-linejoin:miter;stroke-miterlimit:4;stroke-dasharray:none;stroke-opacity:1"
       d="M 158.75,18.520832 171.97917,5e-7"
       id="path927-6" />
    <path
       id="path911"
       d="M 108.47917,18.520832 95.250002,-3.7235141e-8"
       style="fill:none;stroke:#ff0000;stroke-width:0.774;stroke-linecap:butt;stroke-linejoin:miter;stroke-miterlimit:4;stroke-dasharray:none;stroke-opacity:1" />
    <path
       id="path927"
       d="M 145.52083,18.520832 158.75,1.1e-6"
       style="fill:none;stroke:#ff0000;stroke-width:0.774;stroke-linecap:butt;stroke-linejoin:miter;stroke-miterlimit:4;stroke-dasharray:none;stroke-opacity:1" />
    <path
       id="path929"
       d="m 158.75,18.520832 13.22917,18.520833"
       style="fill:#0000ff;stroke:#0000ff;stroke-width:0.774;stroke-linecap:butt;stroke-linejoin:miter;stroke-miterlimit:4;stroke-dasharray:none;stroke-opacity:1" />
    <path
       id="path931"
       d="M 145.52083,37.041664 158.75,18.520832"
       style="fill:#0000ff;stroke:#0000ff;stroke-width:0.774;stroke-linecap:butt;stroke-linejoin:miter;stroke-miterlimit:4;stroke-dasharray:none;stroke-opacity:1" />
    <path
       id="path935"
       d="M 121.70834,4e-7 108.47917,18.520832"
       style="fill:none;stroke:#ff0000;stroke-width:0.774;stroke-linecap:butt;stroke-linejoin:miter;stroke-miterlimit:4;stroke-dasharray:none;stroke-opacity:1" />
    <path
       style="fill:none;stroke:#000000;stroke-width:0.165;stroke-linecap:butt;stroke-linejoin:miter;stroke-miterlimit:4;stroke-dasharray:none;stroke-opacity:1"
       d="M 87.312502,18.520832 H 209.02083"
       id="path68"
       sodipodi:nodetypes="cc" />
    <path
       style="fill:#0000ff;stroke:#0000ff;stroke-width:0.774;stroke-linecap:butt;stroke-linejoin:miter;stroke-miterlimit:4;stroke-dasharray:none;stroke-opacity:1"
       d="M 116.41666,37.041664 129.64583,18.520832"
       id="path931-2" />
    <path
       id="path989"
       d="m 108.47916,18.520832 h 76.72917"
       style="fill:none;stroke:#000000;stroke-width:0.774;stroke-linecap:butt;stroke-linejoin:miter;stroke-miterlimit:4;stroke-dasharray:none;stroke-opacity:1" />
    <ellipse
       ry="0.96043742"
       rx="0.96043754"
       cy="18.467237"
       cx="108.43748"
       id="path843-6-6-0"
       style="fill:#ff0000;stroke:#ff0000;stroke-width:0.192088;stroke-opacity:1" />
    <ellipse
       ry="0.96043742"
       rx="0.96043754"
       cy="18.627735"
       cx="129.2845"
       id="path843-6-6-0-0"
       style="fill:#000000;stroke:#000000;stroke-width:0.192088;stroke-opacity:1" />
    <ellipse
       ry="0.96043742"
       rx="0.96043754"
       cy="18.414188"
       cx="145.54799"
       id="path843-6-6-0-7"
       style="fill:#000000;stroke:#000000;stroke-width:0.192088;stroke-opacity:1" />
    <ellipse
       ry="0.96043742"
       rx="0.96043754"
       cy="18.520962"
       cx="158.91078"
       id="path843-6-6-0-4"
       style="fill:#000000;stroke:#000000;stroke-width:0.192088;stroke-opacity:1" />
    <ellipse
       ry="0.96043742"
       rx="0.96043754"
       cy="18.493427"
       cx="185.27544"
       id="path843-6-6-0-07"
       style="fill:#000000;stroke:#000000;stroke-width:0.192088;stroke-opacity:1" />
    <path
       style="fill:#00ff00;stroke:none;stroke-width:1.47753;stroke-miterlimit:4;stroke-dasharray:none"
       d="M 56.002086,34.334393 C 43.418154,16.667339 33.210483,2.1242023 33.318374,2.0163112 33.426265,1.9084202 54.543661,1.8781502 80.245921,1.9490446 L 126.9773,2.0779436 104.06974,34.150287 C 86.326051,58.992827 80.90518,66.248969 80.022075,66.339469 79.049257,66.439166 75.524723,61.742952 56.002086,34.334393 Z"
       id="path1596"
       transform="matrix(0.26458333,0,0,0.26458333,87.312502,-0.22493924)" />
    <path
       style="fill:#00ff00;stroke:none;stroke-width:1.47753;stroke-miterlimit:4;stroke-dasharray:none"
       d="M 84.033899,68.318898 C 84.256047,67.943985 95.006524,52.833002 107.92385,34.738931 l 23.48605,-32.8983128 18.66792,0.1186627 18.66794,0.1186627 23.6322,33.0803224 c 12.99772,18.194177 23.63221,33.251763 23.63221,33.461304 0,0.209536 -12.05527,0.380979 -26.78949,0.380979 -26.52985,0 -26.80358,-0.0104 -28.24244,-1.074211 -1.62257,-1.199617 -4.45781,-1.032215 -5.58831,0.329961 -0.88912,1.071322 -71.990695,1.133694 -71.356031,0.0626 z"
       id="path1598"
       transform="matrix(0.26458333,0,0,0.26458333,87.312502,-0.22493924)" />
    <path
       style="fill:#00ff00;stroke:none;stroke-width:1.47753;stroke-miterlimit:4;stroke-dasharray:none"
       d="M 196.07406,34.270935 173.07535,2.0779436 196.56306,1.9466801 c 12.91825,-0.072195 34.03964,-0.072195 46.93644,0 L 266.94821,2.0779436 244.0715,34.109013 c -16.22355,22.715567 -23.18529,32.07816 -23.93773,32.192989 -0.88568,0.135169 -4.86149,-5.157894 -24.05971,-32.031067 z"
       id="path1600"
       transform="matrix(0.26458333,0,0,0.26458333,87.312502,-0.22493924)" />
    <path
       style="fill:#00ff00;stroke:none;stroke-width:1.47753;stroke-miterlimit:4;stroke-dasharray:none"
       d="m 224.27739,68.234202 c 0.16174,-0.421491 10.8116,-15.52459 23.66635,-33.562445 L 271.31602,1.8756589 294.23257,1.8505322 C 312.4929,1.830511 317.04973,1.9536831 316.66001,2.4567508 316.391,2.8039907 306.03353,17.300265 293.6434,34.670693 273.63345,62.723774 270.91172,66.32712 269.28895,66.913922 c -1.00482,0.363347 -1.95007,0.98148 -2.10055,1.373626 -0.22965,0.598475 -3.72159,0.713001 -21.73934,0.713001 -18.98187,0 -21.43171,-0.08868 -21.17167,-0.766347 z"
       id="path1602"
       transform="matrix(0.26458333,0,0,0.26458333,87.312502,-0.22493924)" />
  </g>
</svg>
