<?xml version="1.0" encoding="UTF-8" standalone="no"?>
<svg
   xmlns:dc="http://purl.org/dc/elements/1.1/"
   xmlns:cc="http://creativecommons.org/ns#"
   xmlns:rdf="http://www.w3.org/1999/02/22-rdf-syntax-ns#"
   xmlns:svg="http://www.w3.org/2000/svg"
   xmlns="http://www.w3.org/2000/svg"
   xmlns:sodipodi="http://sodipodi.sourceforge.net/DTD/sodipodi-0.dtd"
   xmlns:inkscape="http://www.inkscape.org/namespaces/inkscape"
   sodipodi:docname="split-polygons.svg"
   inkscape:version="1.0 (4035a4fb49, 2020-05-01)"
   id="svg48"
   version="1.1"
   viewBox="0 0 92.604158 37.386485"
   height="37.386486mm"
   width="92.604156mm">
  <defs
     id="defs42">
    <inkscape:perspective
       id="perspective991"
       inkscape:persp3d-origin="60.854164 : 31.575406 : 1"
       inkscape:vp_z="121.70833 : 37.823996 : 1"
       inkscape:vp_y="0 : 999.99999 : 0"
       inkscape:vp_x="0 : 37.823996 : 1"
       sodipodi:type="inkscape:persp3d" />
    <rect
       id="rect1262"
       height="29.104166"
       width="55.5625"
       y="31.75"
       x="5.2916665" />
    <marker
       inkscape:stockid="Arrow1Lend"
       orient="auto"
       refY="0"
       refX="0"
       id="marker1217"
       style="overflow:visible"
       inkscape:isstock="true">
      <path
         id="path1215"
         d="M 0,0 5,-5 -12.5,0 5,5 Z"
         style="fill:#000000;fill-opacity:1;fill-rule:evenodd;stroke:#000000;stroke-width:1pt;stroke-opacity:1"
         transform="matrix(-0.8,0,0,-0.8,-10,0)" />
    </marker>
    <rect
       x="5.2916665"
       y="31.75"
       width="55.5625"
       height="29.104166"
       id="rect1262-3" />
    <rect
       x="5.2916665"
       y="31.75"
       width="55.5625"
       height="29.104166"
       id="rect1275" />
    <rect
       x="5.2916665"
       y="31.75"
       width="55.5625"
       height="29.104166"
       id="rect1262-6" />
    <rect
       x="5.2916665"
       y="31.75"
       width="55.5625"
       height="29.104166"
       id="rect1304" />
    <rect
       id="rect1262-3-2"
       height="29.104166"
       width="55.5625"
       y="31.75"
       x="5.2916665" />
    <rect
       id="rect1333"
       height="29.104166"
       width="55.5625"
       y="31.75"
       x="5.2916665" />
    <rect
       x="5.2916665"
       y="31.75"
       width="55.5625"
       height="29.104166"
       id="rect1262-1" />
    <rect
       x="5.2916665"
       y="31.75"
       width="55.5625"
       height="29.104166"
       id="rect921" />
    <rect
       id="rect1262-3-7"
       height="29.104166"
       width="55.5625"
       y="31.75"
       x="5.2916665" />
    <rect
       id="rect951"
       height="29.104166"
       width="55.5625"
       y="31.75"
       x="5.2916665" />
    <rect
       x="5.2916665"
       y="31.75"
       width="55.5625"
       height="29.104166"
       id="rect1262-0" />
    <rect
       x="5.2916665"
       y="31.75"
       width="55.5625"
       height="29.104166"
       id="rect152" />
    <rect
       x="5.2916665"
       y="31.75"
       width="55.5625"
       height="29.104166"
       id="rect1262-34" />
    <rect
       x="5.2916665"
       y="31.75"
       width="55.5625"
       height="29.104166"
       id="rect152-8" />
    <rect
       x="5.2916665"
       y="31.75"
       width="55.5625"
       height="29.104166"
       id="rect1262-8" />
    <rect
       x="5.2916665"
       y="31.75"
       width="55.5625"
       height="29.104166"
       id="rect152-7" />
    <rect
       id="rect1262-3-6"
       height="29.104166"
       width="55.5625"
       y="31.75"
       x="5.2916665" />
    <rect
       id="rect214"
       height="29.104166"
       width="55.5625"
       y="31.75"
       x="5.2916665" />
    <rect
       id="rect1262-3-28"
       height="29.104166"
       width="55.5625"
       y="31.75"
       x="5.2916665" />
    <rect
       id="rect214-3"
       height="29.104166"
       width="55.5625"
       y="31.75"
       x="5.2916665" />
    <rect
       id="rect1262-3-8"
       height="29.104166"
       width="55.5625"
       y="31.75"
       x="5.2916665" />
    <rect
       id="rect214-4"
       height="29.104166"
       width="55.5625"
       y="31.75"
       x="5.2916665" />
    <rect
       id="rect1262-3-5"
       height="29.104166"
       width="55.5625"
       y="31.75"
       x="5.2916665" />
    <rect
       id="rect69"
       height="29.104166"
       width="55.5625"
       y="31.75"
       x="5.2916665" />
    <rect
       x="5.2916665"
       y="31.75"
       width="55.5625"
       height="29.104166"
       id="rect1262-3-5-8" />
    <rect
       x="5.2916665"
       y="31.75"
       width="55.5625"
       height="29.104166"
       id="rect1163" />
    <rect
       x="5.2916665"
       y="31.75"
       width="55.5625"
       height="29.104166"
       id="rect1262-3-5-5" />
    <rect
       x="5.2916665"
       y="31.75"
       width="55.5625"
       height="29.104166"
       id="rect1163-2" />
    <rect
       id="rect1262-3-5-5-1"
       height="29.104166"
       width="55.5625"
       y="31.75"
       x="5.2916665" />
    <rect
       id="rect1208"
       height="29.104166"
       width="55.5625"
       y="31.75"
       x="5.2916665" />
    <rect
       x="5.2916665"
       y="31.75"
       width="55.5625"
       height="29.104166"
       id="rect1262-3-5-5-1-0" />
    <rect
       x="5.2916665"
       y="31.75"
       width="55.5625"
       height="29.104166"
       id="rect1238" />
    <rect
       x="5.2916665"
       y="31.75"
       width="55.5625"
       height="29.104166"
       id="rect1262-3-74" />
    <rect
       x="5.2916665"
       y="31.75"
       width="55.5625"
       height="29.104166"
       id="rect898" />
  </defs>
  <sodipodi:namedview
     inkscape:window-maximized="1"
     inkscape:window-y="-8"
     inkscape:window-x="-8"
     inkscape:window-height="1017"
     inkscape:window-width="1920"
     fit-margin-bottom="0"
     fit-margin-right="0"
     fit-margin-left="0"
     fit-margin-top="0"
     showgrid="true"
     inkscape:document-rotation="0"
     inkscape:current-layer="layer1"
     inkscape:document-units="mm"
     inkscape:cy="120.56947"
     inkscape:cx="209.10189"
     inkscape:zoom="1.979899"
     inkscape:pageshadow="2"
     inkscape:pageopacity="0.0"
     borderopacity="1.0"
     bordercolor="#666666"
     pagecolor="#ffffff"
     id="base">
    <inkscape:grid
       originy="0.22493854"
       originx="-87.312501"
       spacingy="2.6458333"
       spacingx="2.6458333"
       id="grid82"
       type="xygrid" />
  </sodipodi:namedview>
  <metadata
     id="metadata45">
    <rdf:RDF>
      <cc:Work
         rdf:about="">
        <dc:format>image/svg+xml</dc:format>
        <dc:type
           rdf:resource="http://purl.org/dc/dcmitype/StillImage" />
        <dc:title />
      </cc:Work>
    </rdf:RDF>
  </metadata>
  <g
     transform="translate(-87.312502,0.22493924)"
     id="layer1"
     inkscape:groupmode="layer"
     inkscape:label="Layer 1">
    <path
       style="fill:none;stroke:#ff0000;stroke-width:0.774;stroke-linecap:butt;stroke-linejoin:miter;stroke-miterlimit:4;stroke-dasharray:none;stroke-opacity:1"
       d="M 145.52083,18.520832 132.29167,4e-7"
       id="path911-1" />
    <path
       style="fill:none;stroke:#ff0000;stroke-width:0.774;stroke-linecap:butt;stroke-linejoin:miter;stroke-miterlimit:4;stroke-dasharray:none;stroke-opacity:1"
       d="M 158.75,18.520832 171.97917,5e-7"
       id="path927-6" />
    <path
       id="path911"
       d="M 108.47917,18.520832 95.250002,-3.7235141e-8"
       style="fill:none;stroke:#ff0000;stroke-width:0.774;stroke-linecap:butt;stroke-linejoin:miter;stroke-miterlimit:4;stroke-dasharray:none;stroke-opacity:1" />
    <path
       id="path927"
       d="M 145.52083,18.520832 158.75,1.1e-6"
       style="fill:none;stroke:#ff0000;stroke-width:0.774;stroke-linecap:butt;stroke-linejoin:miter;stroke-miterlimit:4;stroke-dasharray:none;stroke-opacity:1" />
    <path
       id="path935"
       d="M 121.70834,4e-7 108.47917,18.520832"
       style="fill:none;stroke:#ff0000;stroke-width:0.774;stroke-linecap:butt;stroke-linejoin:miter;stroke-miterlimit:4;stroke-dasharray:none;stroke-opacity:1" />
    <path
       style="fill:none;stroke:#000000;stroke-width:0.143926;stroke-linecap:butt;stroke-linejoin:miter;stroke-miterlimit:4;stroke-dasharray:none;stroke-opacity:1"
       d="M 87.312502,18.520832 H 179.91666"
       id="path68"
       sodipodi:nodetypes="cc" />
    <path
       id="path989"
       d="m 108.47916,18.520832 h 50.53676"
       style="fill:none;stroke:#000000;stroke-width:0.628151;stroke-linecap:butt;stroke-linejoin:miter;stroke-miterlimit:4;stroke-dasharray:none;stroke-opacity:1" />
    <ellipse
       ry="0.96043742"
       rx="0.96043754"
       cy="18.467237"
       cx="108.43748"
       id="path843-6-6-0"
       style="fill:#000000;stroke:#000000;stroke-width:0.192088;stroke-opacity:1" />
    <ellipse
       ry="0.96043742"
       rx="0.96043754"
       cy="18.414188"
       cx="145.54799"
       id="path843-6-6-0-7"
       style="fill:#000000;stroke:#000000;stroke-width:0.192088;stroke-opacity:1" />
    <ellipse
       ry="0.96043742"
       rx="0.96043754"
       cy="18.520962"
       cx="158.91078"
       id="path843-6-6-0-4"
       style="fill:#000000;stroke:#000000;stroke-width:0.192088;stroke-opacity:1" />
    <path
       id="path1565"
       d="m 108.47916,18.520832 39.68751,18.520833"
       style="fill:none;stroke:#000000;stroke-width:0.264583px;stroke-linecap:butt;stroke-linejoin:miter;stroke-opacity:1" />
    <path
       transform="matrix(0.26458333,0,0,0.26458333,87.312502,-0.22493924)"
       id="path1567"
       d="M 0.82756286,35.861337 V 1.5161502 H 14.595077 28.362592 L 51.339377,33.664613 C 77.931759,70.87192 76.191296,68.328877 75.7862,69.384547 75.498781,70.133534 72.156853,70.206523 38.149169,70.206523 H 0.82756286 Z"
       style="fill:#00ff00;stroke:none;stroke-width:0.505872;stroke-miterlimit:4;stroke-dasharray:3.03523, 3.03522999999999987;stroke-dashoffset:0" />
    <path
       transform="matrix(0.26458333,0,0,0.26458333,87.312502,-0.22493924)"
       id="path1577"
       d="M 0.82756286,105.56186 V 71.216675 H 38.203207 c 25.663728,0 37.375644,0.165463 37.375644,0.528035 0,0.290418 0.557882,1.085914 1.239735,1.767767 1.416516,1.416517 3.99788,1.65896 5.613645,0.527237 0.931901,-0.65273 6.862188,2.015415 70.696789,31.807766 38.32376,17.88615 70.36142,32.85208 71.19479,33.25762 1.33335,0.64884 -11.98923,0.74122 -110.99051,0.76965 l -112.50573714,0.0323 z"
       style="fill:#00ff00;stroke:none;stroke-width:0.505872;stroke-miterlimit:4;stroke-dasharray:3.03523, 3.03522999999999987;stroke-dashoffset:0" />
    <path
       transform="matrix(0.26458333,0,0,0.26458333,87.312502,-0.22493924)"
       id="path1579"
       d="m 157.14867,106.02161 -72.225908,-33.781127 65.578958,-0.0068 c 65.29847,-0.0068 65.58254,-0.0024 66.41753,1.018687 0.46121,0.564033 1.64664,1.154801 2.63428,1.31282 1.45005,0.232002 2.09603,0.0346 3.35591,-1.025514 l 1.56019,-1.31282 h 20.82984 20.82984 l 1.15129,1.242263 c 2.26475,2.443706 5.89343,2.056246 6.94967,-0.742067 l 0.5701,-1.510349 h 37.26491 37.26491 v 34.345187 34.34519 l -59.97781,-0.0522 -59.97781,-0.0522 z"
       style="fill:#ffff00;stroke:none;stroke-width:0.505872;stroke-miterlimit:4;stroke-dasharray:3.03523, 3.03522999999999987;stroke-dashoffset:0" />
    <path
       transform="matrix(0.26458333,0,0,0.26458333,87.312502,-0.22493924)"
       id="path1581"
       d="m 274.42431,69.164838 c -0.20643,-0.789404 5.48914,-9.107303 23.51743,-34.345185 L 321.73157,1.5161502 h 13.79931 13.79931 V 35.861337 70.206523 h -37.31674 c -37.26848,0 -37.31709,-0.0015 -37.58914,-1.041685 z"
       style="fill:#ffff00;stroke:none;stroke-width:0.505872;stroke-miterlimit:4;stroke-dasharray:3.03523, 3.03522999999999987;stroke-dashoffset:0" />
  </g>
</svg>
